# concrete portion of optimized PSC sleeper
mtllib pc_sleeper_parts.mtl
o concrete
usemtl SleeperConcrete
s off
v -0.135000 -0.460000 0.000000
v 0.135000 -0.460000 0.000000
v 0.135000 0.460000 0.000000
v -0.135000 0.460000 0.000000
v -0.135000 -0.460000 0.140000
v 0.135000 -0.460000 0.140000
v 0.135000 0.460000 0.140000
v -0.135000 0.460000 0.140000
v -0.150000 0.450000 0.000000
v 0.150000 0.450000 0.000000
v 0.150000 1.200000 0.000000
v -0.150000 1.200000 0.000000
v -0.150000 0.450000 0.180000
v 0.150000 0.450000 0.180000
v 0.150000 1.200000 0.180000
v -0.150000 1.200000 0.180000
v -0.150000 -1.200000 0.000000
v 0.150000 -1.200000 0.000000
v 0.150000 -0.450000 0.000000
v -0.150000 -0.450000 0.000000
v -0.150000 -1.200000 0.180000
v 0.150000 -1.200000 0.180000
v 0.150000 -0.450000 0.180000
v -0.150000 -0.450000 0.180000
v -0.140000 0.345000 0.000500
v 0.140000 0.345000 0.000500
v 0.140000 0.565000 0.000500
v -0.140000 0.565000 0.000500
v -0.140000 0.345000 0.155500
v 0.140000 0.345000 0.155500
v 0.140000 0.565000 0.155500
v -0.140000 0.565000 0.155500
v -0.140000 -0.565000 0.000500
v 0.140000 -0.565000 0.000500
v 0.140000 -0.345000 0.000500
v -0.140000 -0.345000 0.000500
v -0.140000 -0.565000 0.155500
v 0.140000 -0.565000 0.155500
v 0.140000 -0.345000 0.155500
v -0.140000 -0.345000 0.155500
vn 0.00000000 0.00000000 -1.00000000
vn 0.00000000 0.00000000 -1.00000000
vn 0.00000000 0.00000000 1.00000000
vn 0.00000000 -0.00000000 1.00000000
vn 0.00000000 -1.00000000 0.00000000
vn 0.00000000 -1.00000000 0.00000000
vn 1.00000000 0.00000000 0.00000000
vn 1.00000000 0.00000000 -0.00000000
vn 0.00000000 1.00000000 0.00000000
vn 0.00000000 1.00000000 0.00000000
vn -1.00000000 0.00000000 -0.00000000
vn -1.00000000 0.00000000 0.00000000
vn 0.00000000 0.00000000 -1.00000000
vn 0.00000000 0.00000000 -1.00000000
vn 0.00000000 0.00000000 1.00000000
vn 0.00000000 -0.00000000 1.00000000
vn 0.00000000 -1.00000000 0.00000000
vn 0.00000000 -1.00000000 0.00000000
vn 1.00000000 0.00000000 0.00000000
vn 1.00000000 0.00000000 -0.00000000
vn 0.00000000 1.00000000 0.00000000
vn 0.00000000 1.00000000 0.00000000
vn -1.00000000 0.00000000 -0.00000000
vn -1.00000000 0.00000000 0.00000000
vn 0.00000000 0.00000000 -1.00000000
vn 0.00000000 0.00000000 -1.00000000
vn 0.00000000 0.00000000 1.00000000
vn 0.00000000 -0.00000000 1.00000000
vn 0.00000000 -1.00000000 0.00000000
vn 0.00000000 -1.00000000 0.00000000
vn 1.00000000 0.00000000 0.00000000
vn 1.00000000 0.00000000 -0.00000000
vn 0.00000000 1.00000000 0.00000000
vn 0.00000000 1.00000000 0.00000000
vn -1.00000000 0.00000000 -0.00000000
vn -1.00000000 0.00000000 0.00000000
vn 0.00000000 0.00000000 -1.00000000
vn 0.00000000 0.00000000 -1.00000000
vn 0.00000000 0.00000000 1.00000000
vn 0.00000000 -0.00000000 1.00000000
vn 0.00000000 -1.00000000 0.00000000
vn 0.00000000 -1.00000000 0.00000000
vn 1.00000000 0.00000000 0.00000000
vn 1.00000000 0.00000000 -0.00000000
vn 0.00000000 1.00000000 0.00000000
vn 0.00000000 1.00000000 0.00000000
vn -1.00000000 0.00000000 -0.00000000
vn -1.00000000 0.00000000 0.00000000
vn 0.00000000 0.00000000 -1.00000000
vn 0.00000000 0.00000000 -1.00000000
vn 0.00000000 0.00000000 1.00000000
vn 0.00000000 -0.00000000 1.00000000
vn 0.00000000 -1.00000000 0.00000000
vn 0.00000000 -1.00000000 0.00000000
vn 1.00000000 0.00000000 0.00000000
vn 1.00000000 0.00000000 -0.00000000
vn 0.00000000 1.00000000 0.00000000
vn 0.00000000 1.00000000 0.00000000
vn -1.00000000 0.00000000 -0.00000000
vn -1.00000000 0.00000000 0.00000000
f 2//1 1//1 4//1
f 4//2 3//2 2//2
f 8//3 5//3 6//3
f 6//4 7//4 8//4
f 5//5 1//5 2//5
f 2//6 6//6 5//6
f 6//7 2//7 3//7
f 3//8 7//8 6//8
f 7//9 3//9 4//9
f 4//10 8//10 7//10
f 8//11 4//11 1//11
f 1//12 5//12 8//12
f 10//13 9//13 12//13
f 12//14 11//14 10//14
f 16//15 13//15 14//15
f 14//16 15//16 16//16
f 13//17 9//17 10//17
f 10//18 14//18 13//18
f 14//19 10//19 11//19
f 11//20 15//20 14//20
f 15//21 11//21 12//21
f 12//22 16//22 15//22
f 16//23 12//23 9//23
f 9//24 13//24 16//24
f 18//25 17//25 20//25
f 20//26 19//26 18//26
f 24//27 21//27 22//27
f 22//28 23//28 24//28
f 21//29 17//29 18//29
f 18//30 22//30 21//30
f 22//31 18//31 19//31
f 19//32 23//32 22//32
f 23//33 19//33 20//33
f 20//34 24//34 23//34
f 24//35 20//35 17//35
f 17//36 21//36 24//36
f 26//37 25//37 28//37
f 28//38 27//38 26//38
f 32//39 29//39 30//39
f 30//40 31//40 32//40
f 29//41 25//41 26//41
f 26//42 30//42 29//42
f 30//43 26//43 27//43
f 27//44 31//44 30//44
f 31//45 27//45 28//45
f 28//46 32//46 31//46
f 32//47 28//47 25//47
f 25//48 29//48 32//48
f 34//49 33//49 36//49
f 36//50 35//50 34//50
f 40//51 37//51 38//51
f 38//52 39//52 40//52
f 37//53 33//53 34//53
f 34//54 38//54 37//54
f 38//55 34//55 35//55
f 35//56 39//56 38//56
f 39//57 35//57 36//57
f 36//58 40//58 39//58
f 40//59 36//59 33//59
f 33//60 37//60 40//60
