# clips portion of optimized PSC sleeper
mtllib pc_sleeper_parts.mtl
o clips
usemtl SleeperClips
s off
v -0.147046 -0.905064 0.209000
v 0.031659 -0.926612 0.209000
v 0.037046 -0.881936 0.209000
v -0.141659 -0.860388 0.209000
v -0.147046 -0.905064 0.261000
v 0.031659 -0.926612 0.261000
v 0.037046 -0.881936 0.261000
v -0.141659 -0.860388 0.261000
v 0.005240 -0.929064 0.214500
v 0.152816 -0.902209 0.214500
v 0.144760 -0.857936 0.214500
v -0.002816 -0.884791 0.214500
v 0.005240 -0.929064 0.261500
v 0.152816 -0.902209 0.261500
v 0.144760 -0.857936 0.261500
v -0.002816 -0.884791 0.261500
v -0.141659 -0.574612 0.209000
v 0.037046 -0.553064 0.209000
v 0.031659 -0.508388 0.209000
v -0.147046 -0.529936 0.209000
v -0.141659 -0.574612 0.261000
v 0.037046 -0.553064 0.261000
v 0.031659 -0.508388 0.261000
v -0.147046 -0.529936 0.261000
v -0.002816 -0.550209 0.214500
v 0.144760 -0.577064 0.214500
v 0.152816 -0.532791 0.214500
v 0.005240 -0.505936 0.214500
v -0.002816 -0.550209 0.261500
v 0.144760 -0.577064 0.261500
v 0.152816 -0.532791 0.261500
v 0.005240 -0.505936 0.261500
v -0.147046 0.529936 0.209000
v 0.031659 0.508388 0.209000
v 0.037046 0.553064 0.209000
v -0.141659 0.574612 0.209000
v -0.147046 0.529936 0.261000
v 0.031659 0.508388 0.261000
v 0.037046 0.553064 0.261000
v -0.141659 0.574612 0.261000
v 0.005240 0.505936 0.214500
v 0.152816 0.532791 0.214500
v 0.144760 0.577064 0.214500
v -0.002816 0.550209 0.214500
v 0.005240 0.505936 0.261500
v 0.152816 0.532791 0.261500
v 0.144760 0.577064 0.261500
v -0.002816 0.550209 0.261500
v -0.141659 0.860388 0.209000
v 0.037046 0.881936 0.209000
v 0.031659 0.926612 0.209000
v -0.147046 0.905064 0.209000
v -0.141659 0.860388 0.261000
v 0.037046 0.881936 0.261000
v 0.031659 0.926612 0.261000
v -0.147046 0.905064 0.261000
v -0.002816 0.884791 0.214500
v 0.144760 0.857936 0.214500
v 0.152816 0.902209 0.214500
v 0.005240 0.929064 0.214500
v -0.002816 0.884791 0.261500
v 0.144760 0.857936 0.261500
v 0.152816 0.902209 0.261500
v 0.005240 0.929064 0.261500
v -0.127500 -0.917500 0.219500
v -0.082500 -0.917500 0.219500
v -0.082500 -0.872500 0.219500
v -0.127500 -0.872500 0.219500
v -0.127500 -0.917500 0.264500
v -0.082500 -0.917500 0.264500
v -0.082500 -0.872500 0.264500
v -0.127500 -0.872500 0.264500
v 0.082500 -0.917500 0.219500
v 0.127500 -0.917500 0.219500
v 0.127500 -0.872500 0.219500
v 0.082500 -0.872500 0.219500
v 0.082500 -0.917500 0.264500
v 0.127500 -0.917500 0.264500
v 0.127500 -0.872500 0.264500
v 0.082500 -0.872500 0.264500
v -0.127500 -0.562500 0.219500
v -0.082500 -0.562500 0.219500
v -0.082500 -0.517500 0.219500
v -0.127500 -0.517500 0.219500
v -0.127500 -0.562500 0.264500
v -0.082500 -0.562500 0.264500
v -0.082500 -0.517500 0.264500
v -0.127500 -0.517500 0.264500
v 0.082500 -0.562500 0.219500
v 0.127500 -0.562500 0.219500
v 0.127500 -0.517500 0.219500
v 0.082500 -0.517500 0.219500
v 0.082500 -0.562500 0.264500
v 0.127500 -0.562500 0.264500
v 0.127500 -0.517500 0.264500
v 0.082500 -0.517500 0.264500
v -0.127500 0.517500 0.219500
v -0.082500 0.517500 0.219500
v -0.082500 0.562500 0.219500
v -0.127500 0.562500 0.219500
v -0.127500 0.517500 0.264500
v -0.082500 0.517500 0.264500
v -0.082500 0.562500 0.264500
v -0.127500 0.562500 0.264500
v 0.082500 0.517500 0.219500
v 0.127500 0.517500 0.219500
v 0.127500 0.562500 0.219500
v 0.082500 0.562500 0.219500
v 0.082500 0.517500 0.264500
v 0.127500 0.517500 0.264500
v 0.127500 0.562500 0.264500
v 0.082500 0.562500 0.264500
v -0.127500 0.872500 0.219500
v -0.082500 0.872500 0.219500
v -0.082500 0.917500 0.219500
v -0.127500 0.917500 0.219500
v -0.127500 0.872500 0.264500
v -0.082500 0.872500 0.264500
v -0.082500 0.917500 0.264500
v -0.127500 0.917500 0.264500
v 0.082500 0.872500 0.219500
v 0.127500 0.872500 0.219500
v 0.127500 0.917500 0.219500
v 0.082500 0.917500 0.219500
v 0.082500 0.872500 0.264500
v 0.127500 0.872500 0.264500
v 0.127500 0.917500 0.264500
v 0.082500 0.917500 0.264500
vn 0.00000000 0.00000000 -1.00000000
vn 0.00000000 0.00000000 -1.00000000
vn 0.00000000 0.00000000 1.00000000
vn 0.00000000 -0.00000000 1.00000000
vn -0.11971149 -0.99280872 -0.00000000
vn -0.11971149 -0.99280872 0.00000000
vn 0.99280864 -0.11971215 0.00000000
vn 0.99280864 -0.11971215 0.00000000
vn 0.11971149 0.99280872 0.00000000
vn 0.11971149 0.99280872 -0.00000000
vn -0.99280864 0.11971215 0.00000000
vn -0.99280864 0.11971215 0.00000000
vn -0.00000000 0.00000000 -1.00000000
vn 0.00000000 0.00000000 -1.00000000
vn 0.00000000 0.00000000 1.00000000
vn 0.00000000 0.00000000 1.00000000
vn 0.17903386 -0.98384291 0.00000000
vn 0.17903386 -0.98384291 0.00000000
vn 0.98384501 0.17902233 0.00000000
vn 0.98384501 0.17902233 -0.00000000
vn -0.17903386 0.98384291 0.00000000
vn -0.17903386 0.98384291 0.00000000
vn -0.98384501 -0.17902233 -0.00000000
vn -0.98384501 -0.17902233 0.00000000
vn -0.00000000 0.00000000 -1.00000000
vn 0.00000000 0.00000000 -1.00000000
vn 0.00000000 0.00000000 1.00000000
vn 0.00000000 0.00000000 1.00000000
vn 0.11971149 -0.99280872 0.00000000
vn 0.11971149 -0.99280872 0.00000000
vn 0.99280864 0.11971215 0.00000000
vn 0.99280864 0.11971215 -0.00000000
vn -0.11971149 0.99280872 0.00000000
vn -0.11971149 0.99280872 0.00000000
vn -0.99280864 -0.11971215 -0.00000000
vn -0.99280864 -0.11971215 0.00000000
vn 0.00000000 0.00000000 -1.00000000
vn 0.00000000 0.00000000 -1.00000000
vn 0.00000000 0.00000000 1.00000000
vn 0.00000000 -0.00000000 1.00000000
vn -0.17903386 -0.98384291 -0.00000000
vn -0.17903386 -0.98384291 0.00000000
vn 0.98384501 -0.17902233 0.00000000
vn 0.98384501 -0.17902233 0.00000000
vn 0.17903386 0.98384291 0.00000000
vn 0.17903386 0.98384291 -0.00000000
vn -0.98384501 0.17902233 0.00000000
vn -0.98384501 0.17902233 0.00000000
vn 0.00000000 0.00000000 -1.00000000
vn 0.00000000 0.00000000 -1.00000000
vn 0.00000000 0.00000000 1.00000000
vn 0.00000000 -0.00000000 1.00000000
vn -0.11971149 -0.99280872 -0.00000000
vn -0.11971149 -0.99280872 0.00000000
vn 0.99280864 -0.11971215 0.00000000
vn 0.99280864 -0.11971215 0.00000000
vn 0.11971149 0.99280872 0.00000000
vn 0.11971149 0.99280872 -0.00000000
vn -0.99280864 0.11971215 0.00000000
vn -0.99280864 0.11971215 0.00000000
vn -0.00000000 0.00000000 -1.00000000
vn 0.00000000 0.00000000 -1.00000000
vn 0.00000000 0.00000000 1.00000000
vn 0.00000000 0.00000000 1.00000000
vn 0.17903386 -0.98384291 0.00000000
vn 0.17903386 -0.98384291 0.00000000
vn 0.98384501 0.17902233 0.00000000
vn 0.98384501 0.17902233 -0.00000000
vn -0.17903386 0.98384291 0.00000000
vn -0.17903386 0.98384291 0.00000000
vn -0.98384501 -0.17902233 -0.00000000
vn -0.98384501 -0.17902233 0.00000000
vn -0.00000000 0.00000000 -1.00000000
vn 0.00000000 0.00000000 -1.00000000
vn 0.00000000 0.00000000 1.00000000
vn 0.00000000 0.00000000 1.00000000
vn 0.11971149 -0.99280872 0.00000000
vn 0.11971149 -0.99280872 0.00000000
vn 0.99280864 0.11971215 0.00000000
vn 0.99280864 0.11971215 -0.00000000
vn -0.11971149 0.99280872 0.00000000
vn -0.11971149 0.99280872 0.00000000
vn -0.99280864 -0.11971215 -0.00000000
vn -0.99280864 -0.11971215 0.00000000
vn 0.00000000 0.00000000 -1.00000000
vn 0.00000000 0.00000000 -1.00000000
vn 0.00000000 0.00000000 1.00000000
vn 0.00000000 -0.00000000 1.00000000
vn -0.17903386 -0.98384291 -0.00000000
vn -0.17903386 -0.98384291 0.00000000
vn 0.98384501 -0.17902233 0.00000000
vn 0.98384501 -0.17902233 0.00000000
vn 0.17903386 0.98384291 0.00000000
vn 0.17903386 0.98384291 -0.00000000
vn -0.98384501 0.17902233 0.00000000
vn -0.98384501 0.17902233 0.00000000
vn 0.00000000 0.00000000 -1.00000000
vn 0.00000000 0.00000000 -1.00000000
vn 0.00000000 0.00000000 1.00000000
vn 0.00000000 -0.00000000 1.00000000
vn 0.00000000 -1.00000000 0.00000000
vn 0.00000000 -1.00000000 0.00000000
vn 1.00000000 0.00000000 0.00000000
vn 1.00000000 0.00000000 -0.00000000
vn 0.00000000 1.00000000 0.00000000
vn 0.00000000 1.00000000 0.00000000
vn -1.00000000 0.00000000 -0.00000000
vn -1.00000000 0.00000000 0.00000000
vn 0.00000000 0.00000000 -1.00000000
vn 0.00000000 0.00000000 -1.00000000
vn 0.00000000 0.00000000 1.00000000
vn 0.00000000 -0.00000000 1.00000000
vn 0.00000000 -1.00000000 0.00000000
vn 0.00000000 -1.00000000 0.00000000
vn 1.00000000 0.00000000 0.00000000
vn 1.00000000 0.00000000 -0.00000000
vn 0.00000000 1.00000000 0.00000000
vn 0.00000000 1.00000000 0.00000000
vn -1.00000000 0.00000000 -0.00000000
vn -1.00000000 0.00000000 0.00000000
vn 0.00000000 0.00000000 -1.00000000
vn 0.00000000 0.00000000 -1.00000000
vn 0.00000000 0.00000000 1.00000000
vn 0.00000000 -0.00000000 1.00000000
vn 0.00000000 -1.00000000 0.00000000
vn 0.00000000 -1.00000000 0.00000000
vn 1.00000000 0.00000000 0.00000000
vn 1.00000000 0.00000000 -0.00000000
vn 0.00000000 1.00000000 0.00000000
vn 0.00000000 1.00000000 0.00000000
vn -1.00000000 0.00000000 -0.00000000
vn -1.00000000 0.00000000 0.00000000
vn 0.00000000 0.00000000 -1.00000000
vn 0.00000000 0.00000000 -1.00000000
vn 0.00000000 0.00000000 1.00000000
vn 0.00000000 -0.00000000 1.00000000
vn 0.00000000 -1.00000000 0.00000000
vn 0.00000000 -1.00000000 0.00000000
vn 1.00000000 0.00000000 0.00000000
vn 1.00000000 0.00000000 -0.00000000
vn 0.00000000 1.00000000 0.00000000
vn 0.00000000 1.00000000 0.00000000
vn -1.00000000 0.00000000 -0.00000000
vn -1.00000000 0.00000000 0.00000000
vn 0.00000000 0.00000000 -1.00000000
vn 0.00000000 0.00000000 -1.00000000
vn 0.00000000 0.00000000 1.00000000
vn 0.00000000 -0.00000000 1.00000000
vn 0.00000000 -1.00000000 0.00000000
vn 0.00000000 -1.00000000 0.00000000
vn 1.00000000 0.00000000 0.00000000
vn 1.00000000 0.00000000 -0.00000000
vn 0.00000000 1.00000000 0.00000000
vn 0.00000000 1.00000000 0.00000000
vn -1.00000000 0.00000000 -0.00000000
vn -1.00000000 0.00000000 0.00000000
vn 0.00000000 0.00000000 -1.00000000
vn 0.00000000 0.00000000 -1.00000000
vn 0.00000000 0.00000000 1.00000000
vn 0.00000000 -0.00000000 1.00000000
vn 0.00000000 -1.00000000 0.00000000
vn 0.00000000 -1.00000000 0.00000000
vn 1.00000000 0.00000000 0.00000000
vn 1.00000000 0.00000000 -0.00000000
vn 0.00000000 1.00000000 0.00000000
vn 0.00000000 1.00000000 0.00000000
vn -1.00000000 0.00000000 -0.00000000
vn -1.00000000 0.00000000 0.00000000
vn 0.00000000 0.00000000 -1.00000000
vn 0.00000000 0.00000000 -1.00000000
vn 0.00000000 0.00000000 1.00000000
vn 0.00000000 -0.00000000 1.00000000
vn 0.00000000 -1.00000000 0.00000000
vn 0.00000000 -1.00000000 0.00000000
vn 1.00000000 0.00000000 0.00000000
vn 1.00000000 0.00000000 -0.00000000
vn 0.00000000 1.00000000 0.00000000
vn 0.00000000 1.00000000 0.00000000
vn -1.00000000 0.00000000 -0.00000000
vn -1.00000000 0.00000000 0.00000000
vn 0.00000000 0.00000000 -1.00000000
vn 0.00000000 0.00000000 -1.00000000
vn 0.00000000 0.00000000 1.00000000
vn 0.00000000 -0.00000000 1.00000000
vn 0.00000000 -1.00000000 0.00000000
vn 0.00000000 -1.00000000 0.00000000
vn 1.00000000 0.00000000 0.00000000
vn 1.00000000 0.00000000 -0.00000000
vn 0.00000000 1.00000000 0.00000000
vn 0.00000000 1.00000000 0.00000000
vn -1.00000000 0.00000000 -0.00000000
vn -1.00000000 0.00000000 0.00000000
f 2//1 1//1 4//1
f 4//2 3//2 2//2
f 8//3 5//3 6//3
f 6//4 7//4 8//4
f 5//5 1//5 2//5
f 2//6 6//6 5//6
f 6//7 2//7 3//7
f 3//8 7//8 6//8
f 7//9 3//9 4//9
f 4//10 8//10 7//10
f 8//11 4//11 1//11
f 1//12 5//12 8//12
f 10//13 9//13 12//13
f 12//14 11//14 10//14
f 16//15 13//15 14//15
f 14//16 15//16 16//16
f 13//17 9//17 10//17
f 10//18 14//18 13//18
f 14//19 10//19 11//19
f 11//20 15//20 14//20
f 15//21 11//21 12//21
f 12//22 16//22 15//22
f 16//23 12//23 9//23
f 9//24 13//24 16//24
f 18//25 17//25 20//25
f 20//26 19//26 18//26
f 24//27 21//27 22//27
f 22//28 23//28 24//28
f 21//29 17//29 18//29
f 18//30 22//30 21//30
f 22//31 18//31 19//31
f 19//32 23//32 22//32
f 23//33 19//33 20//33
f 20//34 24//34 23//34
f 24//35 20//35 17//35
f 17//36 21//36 24//36
f 26//37 25//37 28//37
f 28//38 27//38 26//38
f 32//39 29//39 30//39
f 30//40 31//40 32//40
f 29//41 25//41 26//41
f 26//42 30//42 29//42
f 30//43 26//43 27//43
f 27//44 31//44 30//44
f 31//45 27//45 28//45
f 28//46 32//46 31//46
f 32//47 28//47 25//47
f 25//48 29//48 32//48
f 34//49 33//49 36//49
f 36//50 35//50 34//50
f 40//51 37//51 38//51
f 38//52 39//52 40//52
f 37//53 33//53 34//53
f 34//54 38//54 37//54
f 38//55 34//55 35//55
f 35//56 39//56 38//56
f 39//57 35//57 36//57
f 36//58 40//58 39//58
f 40//59 36//59 33//59
f 33//60 37//60 40//60
f 42//61 41//61 44//61
f 44//62 43//62 42//62
f 48//63 45//63 46//63
f 46//64 47//64 48//64
f 45//65 41//65 42//65
f 42//66 46//66 45//66
f 46//67 42//67 43//67
f 43//68 47//68 46//68
f 47//69 43//69 44//69
f 44//70 48//70 47//70
f 48//71 44//71 41//71
f 41//72 45//72 48//72
f 50//73 49//73 52//73
f 52//74 51//74 50//74
f 56//75 53//75 54//75
f 54//76 55//76 56//76
f 53//77 49//77 50//77
f 50//78 54//78 53//78
f 54//79 50//79 51//79
f 51//80 55//80 54//80
f 55//81 51//81 52//81
f 52//82 56//82 55//82
f 56//83 52//83 49//83
f 49//84 53//84 56//84
f 58//85 57//85 60//85
f 60//86 59//86 58//86
f 64//87 61//87 62//87
f 62//88 63//88 64//88
f 61//89 57//89 58//89
f 58//90 62//90 61//90
f 62//91 58//91 59//91
f 59//92 63//92 62//92
f 63//93 59//93 60//93
f 60//94 64//94 63//94
f 64//95 60//95 57//95
f 57//96 61//96 64//96
f 66//97 65//97 68//97
f 68//98 67//98 66//98
f 72//99 69//99 70//99
f 70//100 71//100 72//100
f 69//101 65//101 66//101
f 66//102 70//102 69//102
f 70//103 66//103 67//103
f 67//104 71//104 70//104
f 71//105 67//105 68//105
f 68//106 72//106 71//106
f 72//107 68//107 65//107
f 65//108 69//108 72//108
f 74//109 73//109 76//109
f 76//110 75//110 74//110
f 80//111 77//111 78//111
f 78//112 79//112 80//112
f 77//113 73//113 74//113
f 74//114 78//114 77//114
f 78//115 74//115 75//115
f 75//116 79//116 78//116
f 79//117 75//117 76//117
f 76//118 80//118 79//118
f 80//119 76//119 73//119
f 73//120 77//120 80//120
f 82//121 81//121 84//121
f 84//122 83//122 82//122
f 88//123 85//123 86//123
f 86//124 87//124 88//124
f 85//125 81//125 82//125
f 82//126 86//126 85//126
f 86//127 82//127 83//127
f 83//128 87//128 86//128
f 87//129 83//129 84//129
f 84//130 88//130 87//130
f 88//131 84//131 81//131
f 81//132 85//132 88//132
f 90//133 89//133 92//133
f 92//134 91//134 90//134
f 96//135 93//135 94//135
f 94//136 95//136 96//136
f 93//137 89//137 90//137
f 90//138 94//138 93//138
f 94//139 90//139 91//139
f 91//140 95//140 94//140
f 95//141 91//141 92//141
f 92//142 96//142 95//142
f 96//143 92//143 89//143
f 89//144 93//144 96//144
f 98//145 97//145 100//145
f 100//146 99//146 98//146
f 104//147 101//147 102//147
f 102//148 103//148 104//148
f 101//149 97//149 98//149
f 98//150 102//150 101//150
f 102//151 98//151 99//151
f 99//152 103//152 102//152
f 103//153 99//153 100//153
f 100//154 104//154 103//154
f 104//155 100//155 97//155
f 97//156 101//156 104//156
f 106//157 105//157 108//157
f 108//158 107//158 106//158
f 112//159 109//159 110//159
f 110//160 111//160 112//160
f 109//161 105//161 106//161
f 106//162 110//162 109//162
f 110//163 106//163 107//163
f 107//164 111//164 110//164
f 111//165 107//165 108//165
f 108//166 112//166 111//166
f 112//167 108//167 105//167
f 105//168 109//168 112//168
f 114//169 113//169 116//169
f 116//170 115//170 114//170
f 120//171 117//171 118//171
f 118//172 119//172 120//172
f 117//173 113//173 114//173
f 114//174 118//174 117//174
f 118//175 114//175 115//175
f 115//176 119//176 118//176
f 119//177 115//177 116//177
f 116//178 120//178 119//178
f 120//179 116//179 113//179
f 113//180 117//180 120//180
f 122//181 121//181 124//181
f 124//182 123//182 122//182
f 128//183 125//183 126//183
f 126//184 127//184 128//184
f 125//185 121//185 122//185
f 122//186 126//186 125//186
f 126//187 122//187 123//187
f 123//188 127//188 126//188
f 127//189 123//189 124//189
f 124//190 128//190 127//190
f 128//191 124//191 121//191
f 121//192 125//192 128//192
