# Smooth ballast widening from the existing main-line shoulder into the siding bed.
mtllib ballast_transition.mtl
o ballast_transition
usemtl TurnoutBallast
s off
v -10.0 -1.580 0.282
v  -6.0 -1.550 0.282
v   0.0 -1.450 0.282
v   6.0 -1.200 0.282
v  12.0 -0.800 0.282
v  18.0 -0.450 0.282
v  22.0 -1.150 0.282
v -10.0 -1.581 0.282
v  -6.0 -1.700 0.282
v   0.0 -2.150 0.282
v   6.0 -2.850 0.282
v  12.0 -3.750 0.282
v  18.0 -4.850 0.282
v  22.0 -5.425 0.282
vt 0.0 0.0
vt 2.0 0.0
vt 5.0 0.0
vt 8.0 0.0
vt 11.0 0.0
vt 14.0 0.0
vt 16.0 0.0
vt 0.0 0.1
vt 2.0 0.2
vt 5.0 0.5
vt 8.0 0.9
vt 11.0 1.4
vt 14.0 2.1
vt 16.0 2.7
vn 0 0 1
f 1/1/1 8/8/1 9/9/1
f 1/1/1 9/9/1 2/2/1
f 2/2/1 9/9/1 10/10/1
f 2/2/1 10/10/1 3/3/1
f 3/3/1 10/10/1 11/11/1
f 3/3/1 11/11/1 4/4/1
f 4/4/1 11/11/1 12/12/1
f 4/4/1 12/12/1 5/5/1
f 5/5/1 12/12/1 13/13/1
f 5/5/1 13/13/1 6/6/1
f 6/6/1 13/13/1 14/14/1
f 6/6/1 14/14/1 7/7/1
