# Deterministic low-poly angular ballast scatter
mtllib ballast_stones_12m.mtl
v 0.608249 -0.857272 0.347869
v 0.721650 -0.857272 0.347869
v 0.664950 -0.971099 0.347869
v 0.664950 -0.743445 0.347869
v 0.664950 -0.857272 0.374099
v 0.664950 -0.857272 0.338689
v -3.434910 1.844090 0.190584
v -3.286066 1.844090 0.190584
v -3.360488 1.768472 0.190584
v -3.360488 1.919708 0.190584
v -3.360488 1.844090 0.245799
v -3.360488 1.844090 0.171258
v 0.677787 -0.289214 0.356449
v 0.820821 -0.289214 0.356449
v 0.749304 -0.346165 0.356449
v 0.749304 -0.232263 0.356449
v 0.749304 -0.289214 0.411277
v 0.749304 -0.289214 0.337259
v 5.112994 -0.523623 0.360919
v 5.222194 -0.523623 0.360919
v 5.167594 -0.568829 0.360919
v 5.167594 -0.478418 0.360919
v 5.167594 -0.523623 0.430649
v 5.167594 -0.523623 0.336514
v -5.097762 -0.297505 0.351854
v -4.914592 -0.297505 0.351854
v -5.006177 -0.420222 0.351854
v -5.006177 -0.174787 0.351854
v -5.006177 -0.297505 0.391367
v -5.006177 -0.297505 0.338024
v 1.309294 -1.463382 0.348124
v 1.420657 -1.463382 0.348124
v 1.364976 -1.592080 0.348124
v 1.364976 -1.334683 0.348124
v 1.364976 -1.463382 0.375204
v 1.364976 -1.463382 0.338646
v -5.217399 -0.206860 0.360713
v -4.948048 -0.206860 0.360713
v -5.082723 -0.311749 0.360713
v -5.082723 -0.101972 0.360713
v -5.082723 -0.206860 0.429758
v -5.082723 -0.206860 0.336548
v 4.458049 1.650970 0.324041
v 4.667775 1.650970 0.324041
v 4.562912 1.563911 0.324041
v 4.562912 1.738029 0.324041
v 4.562912 1.650970 0.386375
v 4.562912 1.650970 0.302224
v -0.459782 -1.969561 0.110692
v -0.221631 -1.969561 0.110692
v -0.340707 -2.036617 0.110692
v -0.340707 -1.902504 0.110692
v -0.340707 -1.969561 0.184004
v -0.340707 -1.969561 0.085033
v -2.967210 0.022813 0.357049
v -2.702699 0.022813 0.357049
v -2.834954 -0.065353 0.357049
v -2.834954 0.110979 0.357049
v -2.834954 0.022813 0.413877
v -2.834954 0.022813 0.337159
v -5.212881 1.929647 0.140243
v -4.954518 1.929647 0.140243
v -5.083699 1.861495 0.140243
v -5.083699 1.997800 0.140243
v -5.083699 1.929647 0.221586
v -5.083699 1.929647 0.111773
v 5.522272 -1.000880 0.364411
v 5.652915 -1.000880 0.364411
v 5.587594 -1.095400 0.364411
v 5.587594 -0.906359 0.364411
v 5.587594 -1.000880 0.445782
v 5.587594 -1.000880 0.335931
v -0.653934 -2.005223 0.088100
v -0.460849 -2.005223 0.088100
v -0.557392 -2.068574 0.088100
v -0.557392 -1.941872 0.088100
v -0.557392 -2.005223 0.166938
v -0.557392 -2.005223 0.060507
v 2.105237 -0.988610 0.351731
v 2.294437 -0.988610 0.351731
v 2.199837 -1.110235 0.351731
v 2.199837 -0.866985 0.351731
v 2.199837 -0.988610 0.390835
v 2.199837 -0.988610 0.338045
v 1.179503 -1.964661 0.102308
v 1.331868 -1.964661 0.102308
v 1.255685 -2.065890 0.102308
v 1.255685 -1.863433 0.102308
v 1.255685 -1.964661 0.136569
v 1.255685 -1.964661 0.090317
v -4.560380 1.265527 0.353382
v -4.456703 1.265527 0.353382
v -4.508541 1.169514 0.353382
v -4.508541 1.361541 0.353382
v -4.508541 1.265527 0.397989
v -4.508541 1.265527 0.337770
v -2.510847 -0.142043 0.363274
v -2.369750 -0.142043 0.363274
v -2.440298 -0.251332 0.363274
v -2.440298 -0.032755 0.363274
v -2.440298 -0.142043 0.440854
v -2.440298 -0.142043 0.336121
v 0.264205 -0.514957 0.349235
v 0.472399 -0.514957 0.349235
v 0.368302 -0.618127 0.349235
v 0.368302 -0.411787 0.349235
v 0.368302 -0.514957 0.380019
v 0.368302 -0.514957 0.338461
v -1.709536 -0.117752 0.355211
v -1.537671 -0.117752 0.355211
v -1.623604 -0.228956 0.355211
v -1.623604 -0.006548 0.355211
v -1.623604 -0.117752 0.405915
v -1.623604 -0.117752 0.337465
v -0.176835 0.821952 0.349033
v 0.083052 0.821952 0.349033
v -0.046892 0.770133 0.349033
v -0.046892 0.873770 0.349033
v -0.046892 0.821952 0.379144
v -0.046892 0.821952 0.338494
v -0.401378 -1.719671 0.277727
v -0.303970 -1.719671 0.277727
v -0.352674 -1.845075 0.277727
v -0.352674 -1.594267 0.277727
v -0.352674 -1.719671 0.341405
v -0.352674 -1.719671 0.255440
v 1.226483 -1.140263 0.361540
v 1.459116 -1.140263 0.361540
v 1.342799 -1.237584 0.361540
v 1.342799 -1.042942 0.361540
v 1.342799 -1.140263 0.433342
v 1.342799 -1.140263 0.336410
v 5.815362 -1.150665 0.353712
v 6.077775 -1.150665 0.353712
v 5.946568 -1.271506 0.353712
v 5.946568 -1.029824 0.353712
v 5.946568 -1.150665 0.399419
v 5.946568 -1.150665 0.337715
v 5.081708 0.402765 0.349435
v 5.216021 0.402765 0.349435
v 5.148865 0.274601 0.349435
v 5.148865 0.530928 0.349435
v 5.148865 0.402765 0.380884
v 5.148865 0.402765 0.338428
v -4.561713 -1.243681 0.362519
v -4.402416 -1.243681 0.362519
v -4.482065 -1.330747 0.362519
v -4.482065 -1.156614 0.362519
v -4.482065 -1.243681 0.437581
v -4.482065 -1.243681 0.336247
v -2.874986 -1.323489 0.365415
v -2.680183 -1.323489 0.365415
v -2.777585 -1.449259 0.365415
v -2.777585 -1.197719 0.365415
v -2.777585 -1.323489 0.450131
v -2.777585 -1.323489 0.335764
v -3.093087 0.664909 0.354082
v -2.855394 0.664909 0.354082
v -2.974241 0.537942 0.354082
v -2.974241 0.791877 0.354082
v -2.974241 0.664909 0.401022
v -2.974241 0.664909 0.337653
v 2.482035 0.692994 0.349489
v 2.598906 0.692994 0.349489
v 2.540470 0.608868 0.349489
v 2.540470 0.777121 0.349489
v 2.540470 0.692994 0.381117
v 2.540470 0.692994 0.338419
v -1.907836 -0.036900 0.362000
v -1.725527 -0.036900 0.362000
v -1.816682 -0.113670 0.362000
v -1.816682 0.039870 0.362000
v -1.816682 -0.036900 0.435331
v -1.816682 -0.036900 0.336333
v -5.828550 -0.614230 0.349910
v -5.561383 -0.614230 0.349910
v -5.694966 -0.681174 0.349910
v -5.694966 -0.547286 0.349910
v -5.694966 -0.614230 0.382943
v -5.694966 -0.614230 0.338348
v 4.318533 1.821549 0.214536
v 4.477386 1.821549 0.214536
v 4.397960 1.772371 0.214536
v 4.397960 1.870727 0.214536
v 4.397960 1.821549 0.298503
v 4.397960 1.821549 0.185148
v 1.596777 0.288873 0.350738
v 1.766284 0.288873 0.350738
v 1.681530 0.222516 0.350738
v 1.681530 0.355229 0.350738
v 1.681530 0.288873 0.386533
v 1.681530 0.288873 0.338210
v -2.769377 -1.418238 0.355717
v -2.536658 -1.418238 0.355717
v -2.653017 -1.504982 0.355717
v -2.653017 -1.331494 0.355717
v -2.653017 -1.418238 0.408108
v -2.653017 -1.418238 0.337380
v 0.904342 -0.575917 0.351482
v 1.051971 -0.575917 0.351482
v 0.978156 -0.689294 0.351482
v 0.978156 -0.462541 0.351482
v 0.978156 -0.575917 0.389757
v 0.978156 -0.575917 0.338086
v -1.541698 0.583526 0.359875
v -1.311601 0.583526 0.359875
v -1.426649 0.474678 0.359875
v -1.426649 0.692373 0.359875
v -1.426649 0.583526 0.426125
v -1.426649 0.583526 0.336688
v -0.922087 -0.049119 0.358803
v -0.792492 -0.049119 0.358803
v -0.857289 -0.140718 0.358803
v -0.857289 0.042480 0.358803
v -0.857289 -0.049119 0.421478
v -0.857289 -0.049119 0.336866
v 5.767165 0.430986 0.362748
v 5.963405 0.430986 0.362748
v 5.865285 0.349114 0.362748
v 5.865285 0.512857 0.362748
v 5.865285 0.430986 0.438577
v 5.865285 0.430986 0.336209
v -4.527060 -1.416519 0.350739
v -4.415995 -1.416519 0.350739
v -4.471527 -1.503411 0.350739
v -4.471527 -1.329627 0.350739
v -4.471527 -1.416519 0.386536
v -4.471527 -1.416519 0.338210
v 1.453553 -1.853278 0.188745
v 1.664069 -1.853278 0.188745
v 1.558811 -1.961733 0.188745
v 1.558811 -1.744822 0.188745
v 1.558811 -1.853278 0.258660
v 1.558811 -1.853278 0.164275
v -1.324109 -0.970700 0.350433
v -1.164529 -0.970700 0.350433
v -1.244319 -1.057741 0.350433
v -1.244319 -0.883660 0.350433
v -1.244319 -0.970700 0.385209
v -1.244319 -0.970700 0.338261
v -3.204180 1.553214 0.358916
v -3.041190 1.553214 0.358916
v -3.122685 1.485294 0.358916
v -3.122685 1.621135 0.358916
v -3.122685 1.553214 0.421969
v -3.122685 1.553214 0.336847
v 4.656636 1.633254 0.332197
v 4.883727 1.633254 0.332197
v 4.770182 1.556648 0.332197
v 4.770182 1.709861 0.332197
v 4.770182 1.633254 0.381564
v 4.770182 1.633254 0.314919
v -3.973913 -1.968941 0.111095
v -3.831736 -1.968941 0.111095
v -3.902825 -2.045170 0.111095
v -3.902825 -1.892711 0.111095
v -3.902825 -1.968941 0.184344
v -3.902825 -1.968941 0.085458
v -0.255630 0.222252 0.354198
v 0.007250 0.222252 0.354198
v -0.124190 0.158791 0.354198
v -0.124190 0.285713 0.354198
v -0.124190 0.222252 0.401526
v -0.124190 0.222252 0.337634
v 5.229183 -0.146674 0.353253
v 5.377876 -0.146674 0.353253
v 5.303529 -0.226768 0.353253
v 5.303529 -0.066580 0.353253
v 5.303529 -0.146674 0.397429
v 5.303529 -0.146674 0.337791
v -4.139985 1.994248 0.091254
v -3.875894 1.994248 0.091254
v -4.007939 1.889509 0.091254
v -4.007939 2.098986 0.091254
v -4.007939 1.994248 0.155731
v -4.007939 1.994248 0.068688
v -0.841986 -0.334585 0.352291
v -0.607531 -0.334585 0.352291
v -0.724758 -0.400675 0.352291
v -0.724758 -0.268495 0.352291
v -0.724758 -0.334585 0.393260
v -0.724758 -0.334585 0.337952
v 1.200595 -1.573748 0.356793
v 1.326633 -1.573748 0.356793
v 1.263614 -1.654947 0.356793
v 1.263614 -1.492548 0.356793
v 1.263614 -1.573748 0.412769
v 1.263614 -1.573748 0.337201
v 0.897058 0.929803 0.353093
v 1.129207 0.929803 0.353093
v 1.013133 0.837922 0.353093
v 1.013133 1.021684 0.353093
v 1.013133 0.929803 0.396736
v 1.013133 0.929803 0.337818
v -1.326458 -2.014343 0.070371
v -1.226970 -2.014343 0.070371
v -1.276714 -2.109569 0.070371
v -1.276714 -1.919116 0.070371
v -1.276714 -2.014343 0.110786
v -1.276714 -2.014343 0.056226
v 2.868218 -1.714955 0.278997
v 3.132843 -1.714955 0.278997
v 3.000530 -1.762875 0.278997
v 3.000530 -1.667036 0.278997
v 3.000530 -1.714955 0.336218
v 3.000530 -1.714955 0.258969
v -3.308607 -1.880746 0.168064
v -3.121496 -1.880746 0.168064
v -3.215051 -1.974685 0.168064
v -3.215051 -1.786807 0.168064
v -3.215051 -1.880746 0.231299
v -3.215051 -1.880746 0.145931
v -2.344258 1.938406 0.131669
v -2.135318 1.938406 0.131669
v -2.239788 1.839176 0.131669
v -2.239788 2.037636 0.131669
v -2.239788 1.938406 0.204285
v -2.239788 1.938406 0.106253
v 4.069870 1.244329 0.358327
v 4.166137 1.244329 0.358327
v 4.118004 1.184157 0.358327
v 4.118004 1.304501 0.358327
v 4.118004 1.244329 0.419419
v 4.118004 1.244329 0.336945
v -4.510557 -0.778493 0.348203
v -4.395863 -0.778493 0.348203
v -4.453210 -0.836627 0.348203
v -4.453210 -0.720358 0.348203
v -4.453210 -0.778493 0.375545
v -4.453210 -0.778493 0.338633
v -1.445211 -1.323805 0.365103
v -1.294880 -1.323805 0.365103
v -1.370046 -1.419096 0.365103
v -1.370046 -1.228514 0.365103
v -1.370046 -1.323805 0.448779
v -1.370046 -1.323805 0.335816
v 5.087920 1.968347 0.104557
v 5.289314 1.968347 0.104557
v 5.188617 1.843316 0.104557
v 5.188617 2.093378 0.104557
v 5.188617 1.968347 0.154666
v 5.188617 1.968347 0.087019
v -1.134225 0.956554 0.365380
v -0.948477 0.956554 0.365380
v -1.041351 0.877472 0.365380
v -1.041351 1.035636 0.365380
v -1.041351 0.956554 0.449982
v -1.041351 0.956554 0.335770
v 4.576013 -1.894915 0.147968
v 4.760500 -1.894915 0.147968
v 4.668257 -1.995494 0.147968
v 4.668257 -1.794337 0.147968
v 4.668257 -1.894915 0.176336
v 4.668257 -1.894915 0.138039
v 4.667260 0.137044 0.360362
v 4.834250 0.137044 0.360362
v 4.750755 0.078840 0.360362
v 4.750755 0.195248 0.360362
v 4.750755 0.137044 0.428237
v 4.750755 0.137044 0.336606
v 2.283201 -1.469043 0.361861
v 2.527993 -1.469043 0.361861
v 2.405597 -1.527952 0.361861
v 2.405597 -1.410133 0.361861
v 2.405597 -1.469043 0.434729
v 2.405597 -1.469043 0.336357
v 3.289713 1.062366 0.361465
v 3.466326 1.062366 0.361465
v 3.378020 0.991434 0.361465
v 3.378020 1.133299 0.361465
v 3.378020 1.062366 0.433014
v 3.378020 1.062366 0.336423
v -4.437831 -0.300297 0.354487
v -4.196847 -0.300297 0.354487
v -4.317339 -0.353016 0.354487
v -4.317339 -0.247579 0.354487
v -4.317339 -0.300297 0.402776
v -4.317339 -0.300297 0.337586
v 5.626598 1.147350 0.347532
v 5.809199 1.147350 0.347532
v 5.717898 1.055168 0.347532
v 5.717898 1.239531 0.347532
v 5.717898 1.147350 0.372638
v 5.717898 1.147350 0.338745
v 4.469262 -1.559137 0.362202
v 4.579097 -1.559137 0.362202
v 4.524180 -1.656473 0.362202
v 4.524180 -1.461800 0.362202
v 4.524180 -1.559137 0.436208
v 4.524180 -1.559137 0.336300
v 5.095002 1.152340 0.361636
v 5.305178 1.152340 0.361636
v 5.200090 1.028299 0.361636
v 5.200090 1.276381 0.361636
v 5.200090 1.152340 0.433756
v 5.200090 1.152340 0.336394
v 5.261035 -1.389646 0.362218
v 5.384939 -1.389646 0.362218
v 5.322987 -1.476808 0.362218
v 5.322987 -1.302483 0.362218
v 5.322987 -1.389646 0.436278
v 5.322987 -1.389646 0.336297
v -4.779586 1.191285 0.353438
v -4.629301 1.191285 0.353438
v -4.704443 1.137978 0.353438
v -4.704443 1.244592 0.353438
v -4.704443 1.191285 0.398230
v -4.704443 1.191285 0.337760
v -4.056367 -1.350344 0.361115
v -3.795021 -1.350344 0.361115
v -3.925694 -1.434388 0.361115
v -3.925694 -1.266300 0.361115
v -3.925694 -1.350344 0.431498
v -3.925694 -1.350344 0.336481
v 5.048634 1.856885 0.174887
v 5.150542 1.856885 0.174887
v 5.099588 1.748135 0.174887
v 5.099588 1.965635 0.174887
v 5.099588 1.856885 0.206782
v 5.099588 1.856885 0.163723
v -0.415793 -1.376978 0.354507
v -0.268250 -1.376978 0.354507
v -0.342021 -1.455461 0.354507
v -0.342021 -1.298495 0.354507
v -0.342021 -1.376978 0.402863
v -0.342021 -1.376978 0.337582
v -3.469747 -0.962804 0.351009
v -3.259318 -0.962804 0.351009
v -3.364532 -1.014894 0.351009
v -3.364532 -0.910715 0.351009
v -3.364532 -0.962804 0.387705
v -3.364532 -0.962804 0.338165
v 4.896093 1.672063 0.302620
v 5.069332 1.672063 0.302620
v 4.982713 1.626302 0.302620
v 4.982713 1.717825 0.302620
v 4.982713 1.672063 0.341363
v 4.982713 1.672063 0.289060
v -6.054293 -1.631955 0.329199
v -5.785084 -1.631955 0.329199
v -5.919688 -1.734883 0.329199
v -5.919688 -1.529027 0.329199
v -5.919688 -1.631955 0.365626
v -5.919688 -1.631955 0.316449
v 3.421968 1.997098 0.086499
v 3.540829 1.997098 0.086499
v 3.481398 1.876739 0.086499
v 3.481398 2.117456 0.086499
v 3.481398 1.997098 0.141582
v 3.481398 1.997098 0.067220
v -3.068658 -0.484352 0.348959
v -2.952078 -0.484352 0.348959
v -3.010368 -0.558468 0.348959
v -3.010368 -0.410237 0.348959
v -3.010368 -0.484352 0.378823
v -3.010368 -0.484352 0.338507
v -4.238299 0.964623 0.364178
v -4.118571 0.964623 0.364178
v -4.178435 0.911365 0.364178
v -4.178435 1.017882 0.364178
v -4.178435 0.964623 0.444770
v -4.178435 0.964623 0.335970
v -5.880516 -1.546207 0.350368
v -5.775083 -1.546207 0.350368
v -5.827800 -1.646487 0.350368
v -5.827800 -1.445928 0.350368
v -5.827800 -1.546207 0.384927
v -5.827800 -1.546207 0.338272
v 1.264127 1.030307 0.362090
v 1.475943 1.030307 0.362090
v 1.370035 0.917287 0.362090
v 1.370035 1.143327 0.362090
v 1.370035 1.030307 0.435724
v 1.370035 1.030307 0.336318
v 5.017963 0.349971 0.361097
v 5.265554 0.349971 0.361097
v 5.141758 0.276454 0.361097
v 5.141758 0.423489 0.361097
v 5.141758 0.349971 0.431422
v 5.141758 0.349971 0.336484
v -1.245554 0.896853 0.350751
v -1.102768 0.896853 0.350751
v -1.174161 0.809150 0.350751
v -1.174161 0.984557 0.350751
v -1.174161 0.896853 0.386586
v -1.174161 0.896853 0.338208
v -4.302925 0.324829 0.358148
v -4.202765 0.324829 0.358148
v -4.252845 0.218364 0.358148
v -4.252845 0.431295 0.358148
v -4.252845 0.324829 0.418639
v -4.252845 0.324829 0.336975
v 3.061486 0.176129 0.364568
v 3.159434 0.176129 0.364568
v 3.110460 0.055108 0.364568
v 3.110460 0.297151 0.364568
v 3.110460 0.176129 0.446463
v 3.110460 0.176129 0.335905
v 5.334444 -0.560688 0.363260
v 5.580471 -0.560688 0.363260
v 5.457458 -0.674940 0.363260
v 5.457458 -0.446437 0.363260
v 5.457458 -0.560688 0.440795
v 5.457458 -0.560688 0.336123
v -1.398473 -1.405075 0.353547
v -1.242617 -1.405075 0.353547
v -1.320545 -1.487406 0.353547
v -1.320545 -1.322743 0.353547
v -1.320545 -1.405075 0.398703
v -1.320545 -1.405075 0.337742
v 5.580748 -0.966121 0.356382
v 5.726470 -0.966121 0.356382
v 5.653609 -1.079163 0.356382
v 5.653609 -0.853078 0.356382
v 5.653609 -0.966121 0.410991
v 5.653609 -0.966121 0.337270
v -0.262072 0.033721 0.348402
v -0.148853 0.033721 0.348402
v -0.205462 -0.022589 0.348402
v -0.205462 0.090031 0.348402
v -0.205462 0.033721 0.376408
v -0.205462 0.033721 0.338600
v -1.118211 -1.645828 0.332708
v -0.975408 -1.645828 0.332708
v -1.046810 -1.695020 0.332708
v -1.046810 -1.596636 0.332708
v -1.046810 -1.645828 0.412278
v -1.046810 -1.645828 0.304858
v -0.481746 0.377835 0.364346
v -0.377931 0.377835 0.364346
v -0.429839 0.323404 0.364346
v -0.429839 0.432267 0.364346
v -0.429839 0.377835 0.445499
v -0.429839 0.377835 0.335942
v 3.794862 1.207488 0.358913
v 3.944834 1.207488 0.358913
v 3.869848 1.088281 0.358913
v 3.869848 1.326696 0.358913
v 3.869848 1.207488 0.421955
v 3.869848 1.207488 0.336848
v 0.913135 -0.229665 0.349260
v 1.054231 -0.229665 0.349260
v 0.983683 -0.276280 0.349260
v 0.983683 -0.183049 0.349260
v 0.983683 -0.229665 0.380128
v 0.983683 -0.229665 0.338457
v 0.389913 -1.995536 0.085158
v 0.578005 -1.995536 0.085158
v 0.483959 -2.092567 0.085158
v 0.483959 -1.898505 0.085158
v 0.483959 -1.995536 0.132235
v 0.483959 -1.995536 0.068681
v 4.623574 0.066075 0.360466
v 4.802754 0.066075 0.360466
v 4.713164 -0.006559 0.360466
v 4.713164 0.138709 0.360466
v 4.713164 0.066075 0.428684
v 4.713164 0.066075 0.336589
v -1.051577 -0.369681 0.350799
v -0.796264 -0.369681 0.350799
v -0.923920 -0.486042 0.350799
v -0.923920 -0.253321 0.350799
v -0.923920 -0.369681 0.386796
v -0.923920 -0.369681 0.338200
v -1.844079 1.816246 0.201772
v -1.672188 1.816246 0.201772
v -1.758134 1.687091 0.201772
v -1.758134 1.945402 0.201772
v -1.758134 1.816246 0.231170
v -1.758134 1.816246 0.191483
v 3.895522 -1.399949 0.353788
v 4.003992 -1.399949 0.353788
v 3.949757 -1.506950 0.353788
v 3.949757 -1.292949 0.353788
v 3.949757 -1.399949 0.399749
v 3.949757 -1.399949 0.337702
v 5.446226 -0.037194 0.355352
v 5.640800 -0.037194 0.355352
v 5.543513 -0.096719 0.355352
v 5.543513 0.022332 0.355352
v 5.543513 -0.037194 0.406526
v 5.543513 -0.037194 0.337441
v 4.583271 0.601948 0.359446
v 4.707239 0.601948 0.359446
v 4.645255 0.481471 0.359446
v 4.645255 0.722426 0.359446
v 4.645255 0.601948 0.424265
v 4.645255 0.601948 0.336759
v -2.261795 -1.367830 0.364163
v -2.063457 -1.367830 0.364163
v -2.162626 -1.487476 0.364163
v -2.162626 -1.248184 0.364163
v -2.162626 -1.367830 0.444706
v -2.162626 -1.367830 0.335973
v -1.244395 -0.136201 0.354651
v -1.114083 -0.136201 0.354651
v -1.179239 -0.197600 0.354651
v -1.179239 -0.074803 0.354651
v -1.179239 -0.136201 0.403487
v -1.179239 -0.136201 0.337558
v 4.331517 1.787530 0.228275
v 4.422951 1.787530 0.228275
v 4.377234 1.677967 0.228275
v 4.377234 1.897093 0.228275
v 4.377234 1.787530 0.280926
v 4.377234 1.787530 0.209847
v -5.532112 -0.973834 0.351345
v -5.362612 -0.973834 0.351345
v -5.447362 -1.056129 0.351345
v -5.447362 -0.891539 0.351345
v -5.447362 -0.973834 0.389161
v -5.447362 -0.973834 0.338109
v 3.529594 -1.890814 0.156056
v 3.697037 -1.890814 0.156056
v 3.613315 -1.972440 0.156056
v 3.613315 -1.809188 0.156056
v 3.613315 -1.890814 0.202087
v 3.613315 -1.890814 0.139945
v 2.196557 1.497119 0.359567
v 2.365999 1.497119 0.359567
v 2.281278 1.381189 0.359567
v 2.281278 1.613049 0.359567
v 2.281278 1.497119 0.424788
v 2.281278 1.497119 0.336739
v -0.931278 -0.117741 0.351768
v -0.786304 -0.117741 0.351768
v -0.858791 -0.165052 0.351768
v -0.858791 -0.070429 0.351768
v -0.858791 -0.117741 0.390996
v -0.858791 -0.117741 0.338039
v 5.686828 -1.807230 0.209532
v 5.921425 -1.807230 0.209532
v 5.804127 -1.907539 0.209532
v 5.804127 -1.706921 0.209532
v 5.804127 -1.807230 0.244359
v 5.804127 -1.807230 0.197342
v -2.457396 -1.278840 0.354364
v -2.288842 -1.278840 0.354364
v -2.373119 -1.399940 0.354364
v -2.373119 -1.157740 0.354364
v -2.373119 -1.278840 0.402246
v -2.373119 -1.278840 0.337606
v -0.231078 -0.141981 0.355145
v 0.015955 -0.141981 0.355145
v -0.107561 -0.234847 0.355145
v -0.107561 -0.049115 0.355145
v -0.107561 -0.141981 0.405628
v -0.107561 -0.141981 0.337476
v 1.499117 0.930192 0.356892
v 1.644509 0.930192 0.356892
v 1.571813 0.834208 0.356892
v 1.571813 1.026176 0.356892
v 1.571813 0.930192 0.413200
v 1.571813 0.930192 0.337185
v -5.424218 1.531861 0.364163
v -5.209137 1.531861 0.364163
v -5.316678 1.445277 0.364163
v -5.316678 1.618445 0.364163
v -5.316678 1.531861 0.444707
v -5.316678 1.531861 0.335973
v 1.788494 -0.730336 0.361800
v 1.926203 -0.730336 0.361800
v 1.857349 -0.831823 0.361800
v 1.857349 -0.628848 0.361800
v 1.857349 -0.730336 0.434465
v 1.857349 -0.730336 0.336367
v -3.002234 1.051645 0.362059
v -2.850476 1.051645 0.362059
v -2.926355 0.924642 0.362059
v -2.926355 1.178649 0.362059
v -2.926355 1.051645 0.435589
v -2.926355 1.051645 0.336323
v 5.454627 1.506882 0.355526
v 5.709960 1.506882 0.355526
v 5.582293 1.400581 0.355526
v 5.582293 1.613183 0.355526
v 5.582293 1.506882 0.407279
v 5.582293 1.506882 0.337412
v -5.837744 0.580645 0.350974
v -5.727554 0.580645 0.350974
v -5.782649 0.505266 0.350974
v -5.782649 0.656025 0.350974
v -5.782649 0.580645 0.387555
v -5.782649 0.580645 0.338171
v -5.196265 -1.218599 0.353353
v -5.038047 -1.218599 0.353353
v -5.117156 -1.347485 0.353353
v -5.117156 -1.089713 0.353353
v -5.117156 -1.218599 0.397862
v -5.117156 -1.218599 0.337775
v 2.828677 1.953335 0.124711
v 2.976853 1.953335 0.124711
v 2.902765 1.868883 0.124711
v 2.902765 2.037786 0.124711
v 2.902765 1.953335 0.207972
v 2.902765 1.953335 0.095569
v 0.937102 0.223910 0.354481
v 1.060707 0.223910 0.354481
v 0.998905 0.158248 0.354481
v 0.998905 0.289573 0.354481
v 0.998905 0.223910 0.402752
v 0.998905 0.223910 0.337586
v 1.551882 -0.437275 0.355688
v 1.770984 -0.437275 0.355688
v 1.661433 -0.506855 0.355688
v 1.661433 -0.367694 0.355688
v 1.661433 -0.437275 0.407982
v 1.661433 -0.437275 0.337385
v 4.777099 -1.321876 0.360057
v 4.874596 -1.321876 0.360057
v 4.825847 -1.429522 0.360057
v 4.825847 -1.214230 0.360057
v 4.825847 -1.321876 0.426914
v 4.825847 -1.321876 0.336657
v 5.629377 -0.235843 0.356128
v 5.840774 -0.235843 0.356128
v 5.735075 -0.285060 0.356128
v 5.735075 -0.186626 0.356128
v 5.735075 -0.235843 0.409888
v 5.735075 -0.235843 0.337312
v -3.141776 0.025057 0.359362
v -2.926643 0.025057 0.359362
v -3.034209 -0.077569 0.359362
v -3.034209 0.127684 0.359362
v -3.034209 0.025057 0.423904
v -3.034209 0.025057 0.336773
v 0.490350 -0.180099 0.362306
v 0.714055 -0.180099 0.362306
v 0.602203 -0.285049 0.362306
v 0.602203 -0.075150 0.362306
v 0.602203 -0.180099 0.436661
v 0.602203 -0.180099 0.336282
v -2.332629 -0.860941 0.355892
v -2.132473 -0.860941 0.355892
v -2.232551 -0.927206 0.355892
v -2.232551 -0.794675 0.355892
v -2.232551 -0.860941 0.408865
v -2.232551 -0.860941 0.337351
v 0.076976 1.818964 0.199576
v 0.204948 1.818964 0.199576
v 0.140962 1.726350 0.199576
v 0.140962 1.911578 0.199576
v 0.140962 1.818964 0.227816
v 0.140962 1.818964 0.189692
v -4.549967 0.634977 0.347532
v -4.412798 0.634977 0.347532
v -4.481382 0.563269 0.347532
v -4.481382 0.706685 0.347532
v -4.481382 0.634977 0.372637
v -4.481382 0.634977 0.338745
v -1.429030 0.656463 0.350520
v -1.211408 0.656463 0.350520
v -1.320219 0.549275 0.350520
v -1.320219 0.763650 0.350520
v -1.320219 0.656463 0.385588
v -1.320219 0.656463 0.338247
v 1.871693 1.775829 0.239997
v 1.989028 1.775829 0.239997
v 1.930361 1.712247 0.239997
v 1.930361 1.839412 0.239997
v 1.930361 1.775829 0.305201
v 1.930361 1.775829 0.217176
v 5.610842 -0.713062 0.358521
v 5.713878 -0.713062 0.358521
v 5.662360 -0.803539 0.358521
v 5.662360 -0.622586 0.358521
v 5.662360 -0.713062 0.420258
v 5.662360 -0.713062 0.336913
v -1.503924 1.360364 0.363697
v -1.242163 1.360364 0.363697
v -1.373043 1.281883 0.363697
v -1.373043 1.438846 0.363697
v -1.373043 1.360364 0.442689
v -1.373043 1.360364 0.336050
v -2.502148 0.435994 0.357832
v -2.240667 0.435994 0.357832
v -2.371408 0.384191 0.357832
v -2.371408 0.487796 0.357832
v -2.371408 0.435994 0.417271
v -2.371408 0.435994 0.337028
v 3.454526 -1.580128 0.352896
v 3.606817 -1.580128 0.352896
v 3.530671 -1.680424 0.352896
v 3.530671 -1.479832 0.352896
v 3.530671 -1.580128 0.395881
v 3.530671 -1.580128 0.337851
v -6.038907 1.724633 0.274017
v -5.785188 1.724633 0.274017
v -5.912047 1.626441 0.274017
v -5.912047 1.822826 0.274017
v -5.912047 1.724633 0.336578
v -5.912047 1.724633 0.252121
v 1.023188 -1.916369 0.145001
v 1.187645 -1.916369 0.145001
v 1.105416 -1.991375 0.145001
v 1.105416 -1.841363 0.145001
v 1.105416 -1.916369 0.212106
v 1.105416 -1.916369 0.121514
v 2.604716 1.970661 0.097251
v 2.869163 1.970661 0.097251
v 2.736939 1.883861 0.097251
v 2.736939 2.057461 0.097251
v 2.736939 1.970661 0.128253
v 2.736939 1.970661 0.086400
v -5.012758 -1.457635 0.357879
v -4.790530 -1.457635 0.357879
v -4.901644 -1.578424 0.357879
v -4.901644 -1.336846 0.357879
v -4.901644 -1.457635 0.417478
v -4.901644 -1.457635 0.337020
v -1.177278 -0.838470 0.361745
v -0.928493 -0.838470 0.361745
v -1.052885 -0.932009 0.361745
v -1.052885 -0.744930 0.361745
v -1.052885 -0.838470 0.434228
v -1.052885 -0.838470 0.336376
v 5.003893 -1.310924 0.357507
v 5.183161 -1.310924 0.357507
v 5.093527 -1.366479 0.357507
v 5.093527 -1.255369 0.357507
v 5.093527 -1.310924 0.415863
v 5.093527 -1.310924 0.337082
v 0.229326 2.003016 0.088864
v 0.421310 2.003016 0.088864
v 0.325318 1.894839 0.088864
v 0.325318 2.111193 0.088864
v 0.325318 2.003016 0.165247
v 0.325318 2.003016 0.062130
v -2.301663 -1.653355 0.312022
v -2.165272 -1.653355 0.312022
v -2.233468 -1.758621 0.312022
v -2.233468 -1.548088 0.312022
v -2.233468 -1.653355 0.339700
v -2.233468 -1.653355 0.302335
v 2.535340 1.198076 0.347707
v 2.709876 1.198076 0.347707
v 2.622608 1.090731 0.347707
v 2.622608 1.305421 0.347707
v 2.622608 1.198076 0.373397
v 2.622608 1.198076 0.338715
v -3.460569 0.361557 0.350364
v -3.330688 0.361557 0.350364
v -3.395629 0.273897 0.350364
v -3.395629 0.449217 0.350364
v -3.395629 0.361557 0.384909
v -3.395629 0.361557 0.338273
v -1.676451 1.140290 0.354587
v -1.436562 1.140290 0.354587
v -1.556506 1.077053 0.354587
v -1.556506 1.203526 0.354587
v -1.556506 1.140290 0.403209
v -1.556506 1.140290 0.337569
v -2.025729 0.613135 0.356042
v -1.915333 0.613135 0.356042
v -1.970531 0.530925 0.356042
v -1.970531 0.695344 0.356042
v -1.970531 0.613135 0.409515
v -1.970531 0.613135 0.337326
v 5.628552 -0.403765 0.359942
v 5.735504 -0.403765 0.359942
v 5.682028 -0.465713 0.359942
v 5.682028 -0.341817 0.359942
v 5.682028 -0.403765 0.426413
v 5.682028 -0.403765 0.336676
v 3.093411 1.477662 0.353198
v 3.190526 1.477662 0.353198
v 3.141968 1.384192 0.353198
v 3.141968 1.571133 0.353198
v 3.141968 1.477662 0.397193
v 3.141968 1.477662 0.337800
v -0.240964 1.921191 0.136364
v 0.013595 1.921191 0.136364
v -0.113685 1.874483 0.136364
v -0.113685 1.967899 0.136364
v -0.113685 1.921191 0.185612
v -0.113685 1.921191 0.119128
v 1.140933 0.456758 0.357955
v 1.397756 0.456758 0.357955
v 1.269344 0.395623 0.357955
v 1.269344 0.517892 0.357955
v 1.269344 0.456758 0.417806
v 1.269344 0.456758 0.337007
v 4.632947 -0.197466 0.353701
v 4.823049 -0.197466 0.353701
v 4.727998 -0.279948 0.353701
v 4.727998 -0.114984 0.353701
v 4.727998 -0.197466 0.399372
v 4.727998 -0.197466 0.337716
v -5.693912 -0.390616 0.353180
v -5.531274 -0.390616 0.353180
v -5.612593 -0.452040 0.353180
v -5.612593 -0.329192 0.353180
v -5.612593 -0.390616 0.397111
v -5.612593 -0.390616 0.337803
v 2.628533 -0.944798 0.360727
v 2.828048 -0.944798 0.360727
v 2.728291 -1.049480 0.360727
v 2.728291 -0.840115 0.360727
v 2.728291 -0.944798 0.429817
v 2.728291 -0.944798 0.336546
v -0.314268 1.636865 0.332349
v -0.182226 1.636865 0.332349
v -0.248247 1.581190 0.332349
v -0.248247 1.692540 0.332349
v -0.248247 1.636865 0.390405
v -0.248247 1.636865 0.312029
v -2.303277 0.203610 0.356763
v -2.162494 0.203610 0.356763
v -2.232885 0.112643 0.356763
v -2.232885 0.294577 0.356763
v -2.232885 0.203610 0.412638
v -2.232885 0.203610 0.337206
v -5.250733 -0.119713 0.349487
v -5.041811 -0.119713 0.349487
v -5.146272 -0.212939 0.349487
v -5.146272 -0.026487 0.349487
v -5.146272 -0.119713 0.381108
v -5.146272 -0.119713 0.338419
v 4.462815 -1.805623 0.220533
v 4.690994 -1.805623 0.220533
v 4.576904 -1.891987 0.220533
v 4.576904 -1.719260 0.220533
v 4.576904 -1.805623 0.288390
v 4.576904 -1.805623 0.196783
v -2.179688 -1.220344 0.354466
v -2.040384 -1.220344 0.354466
v -2.110036 -1.332309 0.354466
v -2.110036 -1.108380 0.354466
v -2.110036 -1.220344 0.402686
v -2.110036 -1.220344 0.337589
v 5.117933 -0.085744 0.347610
v 5.277352 -0.085744 0.347610
v 5.197643 -0.213953 0.347610
v 5.197643 0.042465 0.347610
v 5.197643 -0.085744 0.372977
v 5.197643 -0.085744 0.338732
v 3.841825 1.354186 0.353275
v 3.977284 1.354186 0.353275
v 3.909555 1.238040 0.353275
v 3.909555 1.470331 0.353275
v 3.909555 1.354186 0.397525
v 3.909555 1.354186 0.337787
v -1.446759 -1.402366 0.361736
v -1.263864 -1.402366 0.361736
v -1.355311 -1.455990 0.361736
v -1.355311 -1.348741 0.361736
v -1.355311 -1.402366 0.434187
v -1.355311 -1.402366 0.336377
v -0.476112 -1.766900 0.235093
v -0.368031 -1.766900 0.235093
v -0.422071 -1.854242 0.235093
v -0.422071 -1.679559 0.235093
v -0.422071 -1.766900 0.263709
v -0.422071 -1.766900 0.225077
v -0.777645 -1.262029 0.355244
v -0.590431 -1.262029 0.355244
v -0.684038 -1.390553 0.355244
v -0.684038 -1.133506 0.355244
v -0.684038 -1.262029 0.406058
v -0.684038 -1.262029 0.337459
v -3.194128 1.856310 0.173976
v -3.062909 1.856310 0.173976
v -3.128518 1.745684 0.173976
v -3.128518 1.966936 0.173976
v -3.128518 1.856310 0.201533
v -3.128518 1.856310 0.164331
v -2.730056 0.287562 0.356214
v -2.589856 0.287562 0.356214
v -2.659956 0.229179 0.356214
v -2.659956 0.345944 0.356214
v -2.659956 0.287562 0.410259
v -2.659956 0.287562 0.337298
v 5.057217 0.794358 0.356101
v 5.326862 0.794358 0.356101
v 5.192039 0.679995 0.356101
v 5.192039 0.908720 0.356101
v 5.192039 0.794358 0.409773
v 5.192039 0.794358 0.337316
v 4.036986 1.420000 0.348615
v 4.246536 1.420000 0.348615
v 4.141761 1.337741 0.348615
v 4.141761 1.502259 0.348615
v 4.141761 1.420000 0.377333
v 4.141761 1.420000 0.338564
v -4.786480 1.026983 0.355965
v -4.683118 1.026983 0.355965
v -4.734799 0.938783 0.355965
v -4.734799 1.115182 0.355965
v -4.734799 1.026983 0.409182
v -4.734799 1.026983 0.337339
v -0.024368 -0.660296 0.359168
v 0.177984 -0.660296 0.359168
v 0.076808 -0.713082 0.359168
v 0.076808 -0.607509 0.359168
v 0.076808 -0.660296 0.423061
v 0.076808 -0.660296 0.336805
v -5.602819 -1.170295 0.352216
v -5.473910 -1.170295 0.352216
v -5.538364 -1.220423 0.352216
v -5.538364 -1.120167 0.352216
v -5.538364 -1.170295 0.392934
v -5.538364 -1.170295 0.337964
v -3.420832 1.952891 0.107717
v -3.255204 1.952891 0.107717
v -3.338018 1.876748 0.107717
v -3.338018 2.029033 0.107717
v -3.338018 1.952891 0.133326
v -3.338018 1.952891 0.098754
v 3.834291 1.607787 0.348197
v 4.076487 1.607787 0.348197
v 3.955389 1.533063 0.348197
v 3.955389 1.682511 0.348197
v 3.955389 1.607787 0.393173
v 3.955389 1.607787 0.332456
v 0.375027 -0.415632 0.348373
v 0.630129 -0.415632 0.348373
v 0.502578 -0.517843 0.348373
v 0.502578 -0.313420 0.348373
v 0.502578 -0.415632 0.376283
v 0.502578 -0.415632 0.338605
v 2.262009 -0.093048 0.353653
v 2.354517 -0.093048 0.353653
v 2.308263 -0.213968 0.353653
v 2.308263 0.027872 0.353653
v 2.308263 -0.093048 0.399161
v 2.308263 -0.093048 0.337725
v 2.101331 0.454531 0.360097
v 2.285708 0.454531 0.360097
v 2.193520 0.328097 0.360097
v 2.193520 0.580964 0.360097
v 2.193520 0.454531 0.427085
v 2.193520 0.454531 0.336651
v 5.443139 0.880240 0.350059
v 5.645535 0.880240 0.350059
v 5.544337 0.781315 0.350059
v 5.544337 0.979166 0.350059
v 5.544337 0.880240 0.383587
v 5.544337 0.880240 0.338324
v -2.670077 0.320914 0.351996
v -2.438362 0.320914 0.351996
v -2.554220 0.269842 0.351996
v -2.554220 0.371986 0.351996
v -2.554220 0.320914 0.391981
v -2.554220 0.320914 0.338001
v 2.007111 0.180367 0.353940
v 2.100251 0.180367 0.353940
v 2.053681 0.053213 0.353940
v 2.053681 0.307521 0.353940
v 2.053681 0.180367 0.400408
v 2.053681 0.180367 0.337677
v 2.941365 0.098702 0.359509
v 3.187959 0.098702 0.359509
v 3.064662 0.038814 0.359509
v 3.064662 0.158589 0.359509
v 3.064662 0.098702 0.424538
v 3.064662 0.098702 0.336749
v 0.069109 0.536967 0.352047
v 0.209565 0.536967 0.352047
v 0.139337 0.435710 0.352047
v 0.139337 0.638225 0.352047
v 0.139337 0.536967 0.392205
v 0.139337 0.536967 0.337992
v -2.400134 0.444553 0.362218
v -2.236887 0.444553 0.362218
v -2.318511 0.358110 0.362218
v -2.318511 0.530996 0.362218
v -2.318511 0.444553 0.436277
v -2.318511 0.444553 0.336297
v 0.471545 0.448097 0.363311
v 0.721695 0.448097 0.363311
v 0.596620 0.349454 0.363311
v 0.596620 0.546741 0.363311
v 0.596620 0.448097 0.441014
v 0.596620 0.448097 0.336115
v 5.628613 0.258121 0.359505
v 5.801962 0.258121 0.359505
v 5.715287 0.135582 0.359505
v 5.715287 0.380660 0.359505
v 5.715287 0.258121 0.424520
v 5.715287 0.258121 0.336749
v -4.805390 -1.374631 0.360734
v -4.616988 -1.374631 0.360734
v -4.711189 -1.477699 0.360734
v -4.711189 -1.271562 0.360734
v -4.711189 -1.374631 0.429846
v -4.711189 -1.374631 0.336544
v -1.481533 -1.214353 0.362481
v -1.286468 -1.214353 0.362481
v -1.384001 -1.288851 0.362481
v -1.384001 -1.139856 0.362481
v -1.384001 -1.214353 0.437418
v -1.384001 -1.214353 0.336253
v 0.385109 0.242092 0.355229
v 0.531472 0.242092 0.355229
v 0.458290 0.136916 0.355229
v 0.458290 0.347268 0.355229
v 0.458290 0.242092 0.405992
v 0.458290 0.242092 0.337462
v 4.355499 2.019993 0.063568
v 4.476124 2.019993 0.063568
v 4.415811 1.913701 0.063568
v 4.415811 2.126284 0.063568
v 4.415811 2.019993 0.094112
v 4.415811 2.019993 0.052878
v 5.505316 -0.076203 0.348622
v 5.669074 -0.076203 0.348622
v 5.587195 -0.202289 0.348622
v 5.587195 0.049884 0.348622
v 5.587195 -0.076203 0.377364
v 5.587195 -0.076203 0.338563
v -1.614667 -1.258498 0.360359
v -1.405043 -1.258498 0.360359
v -1.509855 -1.308249 0.360359
v -1.509855 -1.208746 0.360359
v -1.509855 -1.258498 0.428222
v -1.509855 -1.258498 0.336607
v -4.773950 -1.769478 0.238298
v -4.632774 -1.769478 0.238298
v -4.703362 -1.841876 0.238298
v -4.703362 -1.697079 0.238298
v -4.703362 -1.769478 0.283442
v -4.703362 -1.769478 0.222498
v -3.765234 1.834051 0.201084
v -3.625006 1.834051 0.201084
v -3.695120 1.780727 0.201084
v -3.695120 1.887375 0.201084
v -3.695120 1.834051 0.268546
v -3.695120 1.834051 0.177472
v 2.330699 0.310225 0.358413
v 2.566449 0.310225 0.358413
v 2.448574 0.193013 0.358413
v 2.448574 0.427437 0.358413
v 2.448574 0.310225 0.419790
v 2.448574 0.310225 0.336931
v -1.666373 1.040670 0.354053
v -1.530886 1.040670 0.354053
v -1.598629 0.968540 0.354053
v -1.598629 1.112800 0.354053
v -1.598629 1.040670 0.400894
v -1.598629 1.040670 0.337658
v -1.220588 -1.067294 0.354264
v -1.000700 -1.067294 0.354264
v -1.110644 -1.180319 0.354264
v -1.110644 -0.954269 0.354264
v -1.110644 -1.067294 0.401810
v -1.110644 -1.067294 0.337623
v 0.022353 1.573111 0.359971
v 0.269278 1.573111 0.359971
v 0.145816 1.499808 0.359971
v 0.145816 1.646414 0.359971
v 0.145816 1.573111 0.426542
v 0.145816 1.573111 0.336671
v 4.345175 1.683418 0.307866
v 4.552948 1.683418 0.307866
v 4.449062 1.634789 0.307866
v 4.449062 1.732047 0.307866
v 4.449062 1.683418 0.389833
v 4.449062 1.683418 0.279177
v -3.966751 0.799738 0.358511
v -3.744148 0.799738 0.358511
v -3.855449 0.752905 0.358511
v -3.855449 0.846572 0.358511
v -3.855449 0.799738 0.420215
v -3.855449 0.799738 0.336915
v 0.405993 1.506526 0.351966
v 0.565283 1.506526 0.351966
v 0.485638 1.408182 0.351966
v 0.485638 1.604871 0.351966
v 0.485638 1.506526 0.391853
v 0.485638 1.506526 0.338006
v -4.544110 -1.353890 0.347519
v -4.452263 -1.353890 0.347519
v -4.498187 -1.477307 0.347519
v -4.498187 -1.230473 0.347519
v -4.498187 -1.353890 0.372583
v -4.498187 -1.353890 0.338747
v -1.220113 0.876608 0.347638
v -1.104016 0.876608 0.347638
v -1.162065 0.768388 0.347638
v -1.162065 0.984829 0.347638
v -1.162065 0.876608 0.373097
v -1.162065 0.876608 0.338727
v -4.430351 0.992633 0.365180
v -4.226528 0.992633 0.365180
v -4.328439 0.890605 0.365180
v -4.328439 1.094661 0.365180
v -4.328439 0.992633 0.449111
v -4.328439 0.992633 0.335803
v 1.171940 -1.111644 0.362816
v 1.281439 -1.111644 0.362816
v 1.226690 -1.196692 0.362816
v 1.226690 -1.026596 0.362816
v 1.226690 -1.111644 0.438868
v 1.226690 -1.111644 0.336197
v -3.581185 0.603661 0.348018
v -3.359047 0.603661 0.348018
v -3.470116 0.512446 0.348018
v -3.470116 0.694876 0.348018
v -3.470116 0.603661 0.374745
v -3.470116 0.603661 0.338664
v 3.535101 1.043665 0.364880
v 3.699934 1.043665 0.364880
v 3.617517 0.998362 0.364880
v 3.617517 1.088968 0.364880
v 3.617517 1.043665 0.447812
v 3.617517 1.043665 0.335853
v -3.641743 1.932414 0.135326
v -3.419062 1.932414 0.135326
v -3.530402 1.853072 0.135326
v -3.530402 2.011756 0.135326
v -3.530402 1.932414 0.206551
v -3.530402 1.932414 0.110397
v 0.658962 -0.594521 0.354223
v 0.811005 -0.594521 0.354223
v 0.734984 -0.661892 0.354223
v 0.734984 -0.527151 0.354223
v 0.734984 -0.594521 0.401631
v 0.734984 -0.594521 0.337630
v -1.529874 -0.403906 0.358265
v -1.283021 -0.403906 0.358265
v -1.406448 -0.499170 0.358265
v -1.406448 -0.308642 0.358265
v -1.406448 -0.403906 0.419146
v -1.406448 -0.403906 0.336956
v -3.596760 1.077766 0.347944
v -3.419623 1.077766 0.347944
v -3.508191 1.026095 0.347944
v -3.508191 1.129438 0.347944
v -3.508191 1.077766 0.374423
v -3.508191 1.077766 0.338676
v -1.495458 -0.914431 0.355248
v -1.388045 -0.914431 0.355248
v -1.441751 -1.006606 0.355248
v -1.441751 -0.822255 0.355248
v -1.441751 -0.914431 0.406073
v -1.441751 -0.914431 0.337459
v 5.225169 -1.858990 0.175004
v 5.319371 -1.858990 0.175004
v 5.272270 -1.933529 0.175004
v 5.272270 -1.784452 0.175004
v 5.272270 -1.858990 0.212064
v 5.272270 -1.858990 0.162034
v -0.110251 -0.395994 0.352024
v 0.098851 -0.395994 0.352024
v -0.005700 -0.464605 0.352024
v -0.005700 -0.327384 0.352024
v -0.005700 -0.395994 0.392104
v -0.005700 -0.395994 0.337996
v -3.807468 -0.577429 0.364852
v -3.624789 -0.577429 0.364852
v -3.716129 -0.695387 0.364852
v -3.716129 -0.459472 0.364852
v -3.716129 -0.577429 0.447692
v -3.716129 -0.577429 0.335858
v -0.810303 1.338816 0.352475
v -0.579069 1.338816 0.352475
v -0.694686 1.226990 0.352475
v -0.694686 1.450642 0.352475
v -0.694686 1.338816 0.394057
v -0.694686 1.338816 0.337921
v -2.143460 -0.948681 0.358856
v -1.923876 -0.948681 0.358856
v -2.033668 -1.052216 0.358856
v -2.033668 -0.845145 0.358856
v -2.033668 -0.948681 0.421708
v -2.033668 -0.948681 0.336857
v 3.559532 -0.518694 0.362965
v 3.683990 -0.518694 0.362965
v 3.621761 -0.588759 0.362965
v 3.621761 -0.448628 0.362965
v 3.621761 -0.518694 0.439516
v 3.621761 -0.518694 0.336172
v -0.758711 0.155891 0.356736
v -0.597364 0.155891 0.356736
v -0.678037 0.080593 0.356736
v -0.678037 0.231188 0.356736
v -0.678037 0.155891 0.412521
v -0.678037 0.155891 0.337211
v 5.771947 1.038394 0.356433
v 5.950804 1.038394 0.356433
v 5.861375 0.926972 0.356433
v 5.861375 1.149815 0.356433
v 5.861375 1.038394 0.411210
v 5.861375 1.038394 0.337261
v 1.949007 -1.044046 0.354741
v 2.063981 -1.044046 0.354741
v 2.006494 -1.101225 0.354741
v 2.006494 -0.986867 0.354741
v 2.006494 -1.044046 0.403880
v 2.006494 -1.044046 0.337543
v -1.580127 0.490766 0.357218
v -1.374533 0.490766 0.357218
v -1.477330 0.442473 0.357218
v -1.477330 0.539059 0.357218
v -1.477330 0.490766 0.414613
v -1.477330 0.490766 0.337130
v -3.207191 1.145862 0.357175
v -3.003978 1.145862 0.357175
v -3.105585 1.078545 0.357175
v -3.105585 1.213179 0.357175
v -3.105585 1.145862 0.414423
v -3.105585 1.145862 0.337138
v 3.583481 0.841864 0.356107
v 3.842750 0.841864 0.356107
v 3.713116 0.754195 0.356107
v 3.713116 0.929532 0.356107
v 3.713116 0.841864 0.409799
v 3.713116 0.841864 0.337315
v -1.318822 -1.959942 0.103423
v -1.065413 -1.959942 0.103423
v -1.192118 -2.072448 0.103423
v -1.192118 -1.847436 0.103423
v -1.192118 -1.959942 0.130702
v -1.192118 -1.959942 0.093876
v 4.611957 1.972060 0.110558
v 4.765149 1.972060 0.110558
v 4.688553 1.893345 0.110558
v 4.688553 2.050775 0.110558
v 4.688553 1.972060 0.189087
v 4.688553 1.972060 0.083073
v 2.280902 0.639618 0.348162
v 2.465642 0.639618 0.348162
v 2.373272 0.547196 0.348162
v 2.373272 0.732040 0.348162
v 2.373272 0.639618 0.375370
v 2.373272 0.639618 0.338640
v 0.303015 0.422404 0.355579
v 0.407770 0.422404 0.355579
v 0.355392 0.376989 0.355579
v 0.355392 0.467819 0.355579
v 0.355392 0.422404 0.407507
v 0.355392 0.422404 0.337404
v -1.462332 0.509297 0.365471
v -1.248813 0.509297 0.365471
v -1.355572 0.434819 0.365471
v -1.355572 0.583774 0.365471
v -1.355572 0.509297 0.450373
v -1.355572 0.509297 0.335755
v 2.455634 1.302319 0.357216
v 2.668718 1.302319 0.357216
v 2.562176 1.249090 0.357216
v 2.562176 1.355548 0.357216
v 2.562176 1.302319 0.414601
v 2.562176 1.302319 0.337131
v 4.596046 -1.955539 0.122929
v 4.817292 -1.955539 0.122929
v 4.706669 -2.016952 0.122929
v 4.706669 -1.894127 0.122929
v 4.706669 -1.955539 0.205250
v 4.706669 -1.955539 0.094117
v 1.223969 -0.414391 0.355145
v 1.340139 -0.414391 0.355145
v 1.282054 -0.529412 0.355145
v 1.282054 -0.299369 0.355145
v 1.282054 -0.414391 0.405627
v 1.282054 -0.414391 0.337476
v 1.853072 1.357276 0.359175
v 2.048183 1.357276 0.359175
v 1.950628 1.262286 0.359175
v 1.950628 1.452266 0.359175
v 1.950628 1.357276 0.423091
v 1.950628 1.357276 0.336804
v -2.947087 -1.850826 0.194744
v -2.727433 -1.850826 0.194744
v -2.837260 -1.948562 0.194744
v -2.837260 -1.753091 0.194744
v -2.837260 -1.850826 0.279095
v -2.837260 -1.850826 0.165221
v 2.932160 1.021531 0.361992
v 3.027774 1.021531 0.361992
v 2.979967 0.906135 0.361992
v 2.979967 1.136928 0.361992
v 2.979967 1.021531 0.435298
v 2.979967 1.021531 0.336335
v 1.508282 1.638783 0.329695
v 1.682745 1.638783 0.329695
v 1.595514 1.516236 0.329695
v 1.595514 1.761329 0.329695
v 1.595514 1.638783 0.383254
v 1.595514 1.638783 0.310950
v -6.033452 -0.354534 0.348178
v -5.782443 -0.354534 0.348178
v -5.907947 -0.476738 0.348178
v -5.907947 -0.232329 0.348178
v -5.907947 -0.354534 0.375437
v -5.907947 -0.354534 0.338637
v 2.517083 -1.023698 0.361890
v 2.742567 -1.023698 0.361890
v 2.629825 -1.126181 0.361890
v 2.629825 -0.921215 0.361890
v 2.629825 -1.023698 0.434858
v 2.629825 -1.023698 0.336352
v 2.954009 -1.508016 0.349323
v 3.137261 -1.508016 0.349323
v 3.045635 -1.607040 0.349323
v 3.045635 -1.408991 0.349323
v 3.045635 -1.508016 0.380399
v 3.045635 -1.508016 0.338446
v 5.075842 0.852738 0.352944
v 5.194293 0.852738 0.352944
v 5.135068 0.794992 0.352944
v 5.135068 0.910484 0.352944
v 5.135068 0.852738 0.396089
v 5.135068 0.852738 0.337843
v -2.652963 1.935623 0.128100
v -2.537829 1.935623 0.128100
v -2.595396 1.815443 0.128100
v -2.595396 2.055804 0.128100
v -2.595396 1.935623 0.182513
v -2.595396 1.935623 0.109055
v -5.312542 1.601476 0.347659
v -5.115288 1.601476 0.347659
v -5.213915 1.536258 0.347659
v -5.213915 1.666693 0.347659
v -5.213915 1.601476 0.376533
v -5.213915 1.601476 0.337553
v -0.024768 0.555658 0.358486
v 0.068534 0.555658 0.358486
v 0.021883 0.496621 0.358486
v 0.021883 0.614695 0.358486
v 0.021883 0.555658 0.420107
v 0.021883 0.555658 0.336919
v -0.370454 -1.543908 0.349700
v -0.181615 -1.543908 0.349700
v -0.276035 -1.623790 0.349700
v -0.276035 -1.464026 0.349700
v -0.276035 -1.543908 0.382032
v -0.276035 -1.543908 0.338383
v 1.919100 -0.285289 0.347697
v 2.085942 -0.285289 0.347697
v 2.002521 -0.409120 0.347697
v 2.002521 -0.161458 0.347697
v 2.002521 -0.285289 0.373356
v 2.002521 -0.285289 0.338717
v -1.790251 0.207108 0.351251
v -1.572358 0.207108 0.351251
v -1.681304 0.149953 0.351251
v -1.681304 0.264264 0.351251
v -1.681304 0.207108 0.388755
v -1.681304 0.207108 0.338125
v -5.863010 -0.117754 0.354892
v -5.616901 -0.117754 0.354892
v -5.739955 -0.185871 0.354892
v -5.739955 -0.049637 0.354892
v -5.739955 -0.117754 0.404531
v -5.739955 -0.117754 0.337518
v -4.454019 -1.317933 0.363215
v -4.275517 -1.317933 0.363215
v -4.364768 -1.379281 0.363215
v -4.364768 -1.256585 0.363215
v -4.364768 -1.317933 0.440597
v -4.364768 -1.317933 0.336131
v 1.399383 1.612321 0.348146
v 1.510896 1.612321 0.348146
v 1.455139 1.483136 0.348146
v 1.455139 1.741507 0.348146
v 1.455139 1.612321 0.403230
v 1.455139 1.612321 0.328867
v -0.877938 -1.316699 0.349159
v -0.762966 -1.316699 0.349159
v -0.820452 -1.383455 0.349159
v -0.820452 -1.249943 0.349159
v -0.820452 -1.316699 0.379688
v -0.820452 -1.316699 0.338474
v 4.947249 0.014971 0.361277
v 5.214172 0.014971 0.361277
v 5.080711 -0.039093 0.361277
v 5.080711 0.069035 0.361277
v 5.080711 0.014971 0.432201
v 5.080711 0.014971 0.336454
v -3.708264 1.027780 0.360565
v -3.539267 1.027780 0.360565
v -3.623765 0.913677 0.360565
v -3.623765 1.141882 0.360565
v -3.623765 1.027780 0.429116
v -3.623765 1.027780 0.336572
v 2.313707 -0.789401 0.361703
v 2.551094 -0.789401 0.361703
v 2.432400 -0.863366 0.361703
v 2.432400 -0.715436 0.361703
v 2.432400 -0.789401 0.434044
v 2.432400 -0.789401 0.336383
v 3.436515 -0.016610 0.355317
v 3.571872 -0.016610 0.355317
v 3.504194 -0.077930 0.355317
v 3.504194 0.044711 0.355317
v 3.504194 -0.016610 0.406374
v 3.504194 -0.016610 0.337447
v -1.089321 1.506754 0.362047
v -0.953458 1.506754 0.362047
v -1.021389 1.447478 0.362047
v -1.021389 1.566030 0.362047
v -1.021389 1.506754 0.435537
v -1.021389 1.506754 0.336325
v -3.084665 0.846047 0.363897
v -2.931319 0.846047 0.363897
v -3.007992 0.787129 0.363897
v -3.007992 0.904964 0.363897
v -3.007992 0.846047 0.443555
v -3.007992 0.846047 0.336017
v -3.685214 -0.233339 0.355948
v -3.476574 -0.233339 0.355948
v -3.580894 -0.311810 0.355948
v -3.580894 -0.154867 0.355948
v -3.580894 -0.233339 0.409109
v -3.580894 -0.233339 0.337342
v 4.976488 -0.228007 0.357272
v 5.122592 -0.228007 0.357272
v 5.049540 -0.324396 0.357272
v 5.049540 -0.131618 0.357272
v 5.049540 -0.228007 0.414845
v 5.049540 -0.228007 0.337121
v -5.970818 -1.591111 0.348240
v -5.836688 -1.591111 0.348240
v -5.903753 -1.671651 0.348240
v -5.903753 -1.510571 0.348240
v -5.903753 -1.591111 0.375705
v -5.903753 -1.591111 0.338627
v -2.095206 -1.730325 0.274300
v -1.930153 -1.730325 0.274300
v -2.012680 -1.777765 0.274300
v -2.012680 -1.682886 0.274300
v -2.012680 -1.730325 0.350704
v -2.012680 -1.730325 0.247559
v 0.470561 0.607520 0.357579
v 0.725296 0.607520 0.357579
v 0.597929 0.510730 0.357579
v 0.597929 0.704310 0.357579
v 0.597929 0.607520 0.416175
v 0.597929 0.607520 0.337070
v 3.829491 0.525556 0.353991
v 4.071102 0.525556 0.353991
v 3.950297 0.477592 0.353991
v 3.950297 0.573521 0.353991
v 3.950297 0.525556 0.400630
v 3.950297 0.525556 0.337668
v -4.196956 1.272212 0.359114
v -4.070491 1.272212 0.359114
v -4.133724 1.188065 0.359114
v -4.133724 1.356359 0.359114
v -4.133724 1.272212 0.422829
v -4.133724 1.272212 0.336814
v -0.929196 -0.691739 0.359034
v -0.735813 -0.691739 0.359034
v -0.832504 -0.818802 0.359034
v -0.832504 -0.564676 0.359034
v -0.832504 -0.691739 0.422480
v -0.832504 -0.691739 0.336828
v 1.173170 -1.882495 0.172817
v 1.429166 -1.882495 0.172817
v 1.301168 -1.965794 0.172817
v 1.301168 -1.799195 0.172817
v 1.301168 -1.882495 0.255862
v 1.301168 -1.882495 0.143751
v 5.275663 1.645402 0.331427
v 5.512676 1.645402 0.331427
v 5.394170 1.572868 0.331427
v 5.394170 1.717937 0.331427
v 5.394170 1.645402 0.405761
v 5.394170 1.645402 0.305410
v 1.742713 1.820775 0.208241
v 1.902574 1.820775 0.208241
v 1.822644 1.709471 0.208241
v 1.822644 1.932079 0.208241
v 1.822644 1.820775 0.269470
v 1.822644 1.820775 0.186811
v -2.924456 1.037489 0.361065
v -2.679577 1.037489 0.361065
v -2.802016 0.928875 0.361065
v -2.802016 1.146104 0.361065
v -2.802016 1.037489 0.431280
v -2.802016 1.037489 0.336489
v 2.258535 -1.001816 0.361300
v 2.403986 -1.001816 0.361300
v 2.331261 -1.081319 0.361300
v 2.331261 -0.922314 0.361300
v 2.331261 -1.001816 0.432300
v 2.331261 -1.001816 0.336450
v -1.888108 1.943275 0.123511
v -1.680276 1.943275 0.123511
v -1.784192 1.848354 0.123511
v -1.784192 2.038195 0.123511
v -1.784192 1.943275 0.179970
v -1.784192 1.943275 0.103750
v 4.071202 0.498018 0.358976
v 4.289728 0.498018 0.358976
v 4.180465 0.449145 0.358976
v 4.180465 0.546891 0.358976
v 4.180465 0.498018 0.422229
v 4.180465 0.498018 0.336837
v -1.312891 1.280926 0.350646
v -1.121749 1.280926 0.350646
v -1.217320 1.204073 0.350646
v -1.217320 1.357779 0.350646
v -1.217320 1.280926 0.386132
v -1.217320 1.280926 0.338226
v -0.443423 1.480785 0.352767
v -0.256509 1.480785 0.352767
v -0.349966 1.429624 0.352767
v -0.349966 1.531946 0.352767
v -0.349966 1.480785 0.395324
v -0.349966 1.480785 0.337872
v -3.338441 -1.660612 0.319025
v -3.242566 -1.660612 0.319025
v -3.290504 -1.769539 0.319025
v -3.290504 -1.551685 0.319025
v -3.290504 -1.660612 0.386494
v -3.290504 -1.660612 0.295410
v 1.977113 -0.074561 0.364653
v 2.192204 -0.074561 0.364653
v 2.084658 -0.159972 0.364653
v 2.084658 0.010850 0.364653
v 2.084658 -0.074561 0.446828
v 2.084658 -0.074561 0.335891
v 1.799572 0.464319 0.361210
v 1.922421 0.464319 0.361210
v 1.860997 0.365542 0.361210
v 1.860997 0.563095 0.361210
v 1.860997 0.464319 0.431908
v 1.860997 0.464319 0.336465
v 1.322057 -0.988881 0.348302
v 1.551380 -0.988881 0.348302
v 1.436719 -1.059630 0.348302
v 1.436719 -0.918132 0.348302
v 1.436719 -0.988881 0.375977
v 1.436719 -0.988881 0.338616
v 2.769911 0.972971 0.357454
v 2.951297 0.972971 0.357454
v 2.860604 0.872161 0.357454
v 2.860604 1.073780 0.357454
v 2.860604 0.972971 0.415634
v 2.860604 0.972971 0.337091
v -0.381706 0.633767 0.361946
v -0.163635 0.633767 0.361946
v -0.272671 0.566235 0.361946
v -0.272671 0.701298 0.361946
v -0.272671 0.633767 0.435099
v -0.272671 0.633767 0.336342
v 4.258668 -0.317609 0.364608
v 4.388698 -0.317609 0.364608
v 4.323683 -0.382359 0.364608
v 4.323683 -0.252859 0.364608
v 4.323683 -0.317609 0.446635
v 4.323683 -0.317609 0.335899
v -1.733959 -1.672998 0.305116
v -1.636634 -1.672998 0.305116
v -1.685297 -1.753214 0.305116
v -1.685297 -1.592781 0.305116
v -1.685297 -1.672998 0.354297
v -1.685297 -1.672998 0.287902
v -4.034941 0.085316 0.361662
v -3.773504 0.085316 0.361662
v -3.904222 -0.020240 0.361662
v -3.904222 0.190872 0.361662
v -3.904222 0.085316 0.433867
v -3.904222 0.085316 0.336390
v 2.136114 -0.933366 0.362950
v 2.331692 -0.933366 0.362950
v 2.233903 -0.984936 0.362950
v 2.233903 -0.881796 0.362950
v 2.233903 -0.933366 0.439449
v 2.233903 -0.933366 0.336175
v 4.433098 -0.981859 0.361360
v 4.661690 -0.981859 0.361360
v 4.547394 -1.069297 0.361360
v 4.547394 -0.894421 0.361360
v 4.547394 -0.981859 0.432561
v 4.547394 -0.981859 0.336440
v 2.637988 -0.591824 0.350360
v 2.856099 -0.591824 0.350360
v 2.747044 -0.675888 0.350360
v 2.747044 -0.507760 0.350360
v 2.747044 -0.591824 0.384894
v 2.747044 -0.591824 0.338273
v -1.965405 1.835327 0.198326
v -1.730822 1.835327 0.198326
v -1.848113 1.779352 0.198326
v -1.848113 1.891302 0.198326
v -1.848113 1.835327 0.259485
v -1.848113 1.835327 0.176920
v -2.669636 -0.023252 0.354644
v -2.494354 -0.023252 0.354644
v -2.581995 -0.118824 0.354644
v -2.581995 0.072319 0.354644
v -2.581995 -0.023252 0.403459
v -2.581995 -0.023252 0.337559
v 5.521471 0.154637 0.350523
v 5.774556 0.154637 0.350523
v 5.648013 0.056085 0.350523
v 5.648013 0.253189 0.350523
v 5.648013 0.154637 0.385601
v 5.648013 0.154637 0.338246
v 2.828467 1.938731 0.132561
v 2.972973 1.938731 0.132561
v 2.900720 1.845998 0.132561
v 2.900720 2.031463 0.132561
v 2.900720 1.938731 0.208885
v 2.900720 1.938731 0.105847
v -1.192159 -0.272438 0.363579
v -1.080401 -0.272438 0.363579
v -1.136280 -0.377042 0.363579
v -1.136280 -0.167834 0.363579
v -1.136280 -0.272438 0.442175
v -1.136280 -0.272438 0.336070
v -5.245212 -1.225439 0.352862
v -5.144595 -1.225439 0.352862
v -5.194903 -1.282020 0.352862
v -5.194903 -1.168858 0.352862
v -5.194903 -1.225439 0.395734
v -5.194903 -1.225439 0.337856
v -0.475148 1.159316 0.359188
v -0.219409 1.159316 0.359188
v -0.347279 1.070904 0.359188
v -0.347279 1.247729 0.359188
v -0.347279 1.159316 0.423146
v -0.347279 1.159316 0.336802
v -2.517504 1.922025 0.145484
v -2.323207 1.922025 0.145484
v -2.420355 1.850719 0.145484
v -2.420355 1.993331 0.145484
v -2.420355 1.922025 0.227021
v -2.420355 1.922025 0.116946
v 4.583719 -1.187216 0.361812
v 4.757143 -1.187216 0.361812
v 4.670431 -1.245638 0.361812
v 4.670431 -1.128794 0.361812
v 4.670431 -1.187216 0.434519
v 4.670431 -1.187216 0.336365
v 2.873231 -1.530555 0.362874
v 2.976482 -1.530555 0.362874
v 2.924857 -1.603808 0.362874
v 2.924857 -1.457302 0.362874
v 2.924857 -1.530555 0.439121
v 2.924857 -1.530555 0.336188
v 2.914956 -0.399221 0.351599
v 3.066678 -0.399221 0.351599
v 2.990817 -0.452544 0.351599
v 2.990817 -0.345897 0.351599
v 2.990817 -0.399221 0.390261
v 2.990817 -0.399221 0.338067
v 4.993505 -1.351888 0.360868
v 5.259336 -1.351888 0.360868
v 5.126420 -1.415409 0.360868
v 5.126420 -1.288367 0.360868
v 5.126420 -1.351888 0.430426
v 5.126420 -1.351888 0.336522
v -4.455752 -0.258993 0.357330
v -4.262785 -0.258993 0.357330
v -4.359269 -0.310377 0.357330
v -4.359269 -0.207610 0.357330
v -4.359269 -0.258993 0.415098
v -4.359269 -0.258993 0.337112
v 4.316420 0.603363 0.354610
v 4.428207 0.603363 0.354610
v 4.372313 0.484592 0.354610
v 4.372313 0.722134 0.354610
v 4.372313 0.603363 0.403310
v 4.372313 0.603363 0.337565
v 0.387948 -0.041911 0.359903
v 0.618625 -0.041911 0.359903
v 0.503287 -0.117666 0.359903
v 0.503287 0.033843 0.359903
v 0.503287 -0.041911 0.426247
v 0.503287 -0.041911 0.336683
v -1.382070 -0.106343 0.351680
v -1.232234 -0.106343 0.351680
v -1.307152 -0.172440 0.351680
v -1.307152 -0.040245 0.351680
v -1.307152 -0.106343 0.390614
v -1.307152 -0.106343 0.338053
v 5.093662 -0.772959 0.359299
v 5.340012 -0.772959 0.359299
v 5.216837 -0.847714 0.359299
v 5.216837 -0.698205 0.359299
v 5.216837 -0.772959 0.423629
v 5.216837 -0.772959 0.336783
v -0.080637 -1.542961 0.360494
v 0.156095 -1.542961 0.360494
v 0.037729 -1.612041 0.360494
v 0.037729 -1.473880 0.360494
v 0.037729 -1.542961 0.428806
v 0.037729 -1.542961 0.336584
v 0.173883 1.082565 0.350519
v 0.368369 1.082565 0.350519
v 0.271126 0.970224 0.350519
v 0.271126 1.194906 0.350519
v 0.271126 1.082565 0.385584
v 0.271126 1.082565 0.338247
v 5.750422 1.114361 0.358862
v 6.007946 1.114361 0.358862
v 5.879184 1.035987 0.358862
v 5.879184 1.192735 0.358862
v 5.879184 1.114361 0.421737
v 5.879184 1.114361 0.336856
v 1.263161 -1.151459 0.354451
v 1.491170 -1.151459 0.354451
v 1.377166 -1.216732 0.354451
v 1.377166 -1.086186 0.354451
v 1.377166 -1.151459 0.402623
v 1.377166 -1.151459 0.337591
v 3.439381 0.808632 0.353910
v 3.571083 0.808632 0.353910
v 3.505232 0.692198 0.353910
v 3.505232 0.925067 0.353910
v 3.505232 0.808632 0.400275
v 3.505232 0.808632 0.337682
v -3.108240 0.072084 0.348135
v -2.966942 0.072084 0.348135
v -3.037591 -0.012610 0.348135
v -3.037591 0.156778 0.348135
v -3.037591 0.072084 0.375250
v -3.037591 0.072084 0.338644
v 3.719695 -0.770117 0.362055
v 3.964602 -0.770117 0.362055
v 3.842149 -0.842378 0.362055
v 3.842149 -0.697856 0.362055
v 3.842149 -0.770117 0.435573
v 3.842149 -0.770117 0.336324
v -2.498720 1.976554 0.101340
v -2.265723 1.976554 0.101340
v -2.382222 1.850442 0.101340
v -2.382222 2.102665 0.101340
v -2.382222 1.976554 0.159326
v -2.382222 1.976554 0.081044
v -2.585246 1.404906 0.358293
v -2.374358 1.404906 0.358293
v -2.479802 1.321659 0.358293
v -2.479802 1.488153 0.358293
v -2.479802 1.404906 0.419272
v -2.479802 1.404906 0.336951
v -1.729791 0.437875 0.349324
v -1.473991 0.437875 0.349324
v -1.601891 0.334851 0.349324
v -1.601891 0.540898 0.349324
v -1.601891 0.437875 0.380405
v -1.601891 0.437875 0.338446
v 2.464981 0.601260 0.356479
v 2.678386 0.601260 0.356479
v 2.571683 0.548757 0.356479
v 2.571683 0.653763 0.356479
v 2.571683 0.601260 0.411411
v 2.571683 0.601260 0.337253
v 0.959882 -1.161438 0.358550
v 1.145274 -1.161438 0.358550
v 1.052578 -1.277096 0.358550
v 1.052578 -1.045779 0.358550
v 1.052578 -1.161438 0.420384
v 1.052578 -1.161438 0.336908
v -4.785994 -0.815097 0.354845
v -4.563232 -0.815097 0.354845
v -4.674613 -0.916365 0.354845
v -4.674613 -0.713829 0.354845
v -4.674613 -0.815097 0.404330
v -4.674613 -0.815097 0.337526
v -3.716202 0.323812 0.349800
v -3.610458 0.323812 0.349800
v -3.663330 0.266237 0.349800
v -3.663330 0.381388 0.349800
v -3.663330 0.323812 0.382468
v -3.663330 0.323812 0.338367
v -5.046871 -1.039167 0.353463
v -4.880211 -1.039167 0.353463
v -4.963541 -1.161423 0.353463
v -4.963541 -0.916911 0.353463
v -4.963541 -1.039167 0.398338
v -4.963541 -1.039167 0.337756
v -0.144216 0.314037 0.349699
v 0.008722 0.314037 0.349699
v -0.067747 0.264929 0.349699
v -0.067747 0.363144 0.349699
v -0.067747 0.314037 0.382031
v -0.067747 0.314037 0.338383
v 4.455799 0.576115 0.348871
v 4.675842 0.576115 0.348871
v 4.565820 0.470053 0.348871
v 4.565820 0.682178 0.348871
v 4.565820 0.576115 0.378440
v 4.565820 0.576115 0.338522
v 0.354965 1.178221 0.359281
v 0.599681 1.178221 0.359281
v 0.477323 1.070345 0.359281
v 0.477323 1.286096 0.359281
v 0.477323 1.178221 0.423549
v 0.477323 1.178221 0.336787
v 0.176313 0.054664 0.359592
v 0.419955 0.054664 0.359592
v 0.298134 -0.074312 0.359592
v 0.298134 0.183639 0.359592
v 0.298134 0.054664 0.424897
v 0.298134 0.054664 0.336735
v 2.348001 -0.737523 0.355181
v 2.615945 -0.737523 0.355181
v 2.481973 -0.860388 0.355181
v 2.481973 -0.614658 0.355181
v 2.481973 -0.737523 0.405784
v 2.481973 -0.737523 0.337470
v 0.789468 -0.176843 0.360746
v 0.935370 -0.176843 0.360746
v 0.862419 -0.278652 0.360746
v 0.862419 -0.075034 0.360746
v 0.862419 -0.176843 0.429897
v 0.862419 -0.176843 0.336542
v 4.691579 0.518165 0.349985
v 4.872744 0.518165 0.349985
v 4.782162 0.403370 0.349985
v 4.782162 0.632960 0.349985
v 4.782162 0.518165 0.383270
v 4.782162 0.518165 0.338336
v -2.759624 0.077460 0.352491
v -2.651655 0.077460 0.352491
v -2.705640 -0.003158 0.352491
v -2.705640 0.158078 0.352491
v -2.705640 0.077460 0.394127
v -2.705640 0.077460 0.337918
v -3.969386 0.783962 0.360691
v -3.714947 0.783962 0.360691
v -3.842166 0.677196 0.360691
v -3.842166 0.890728 0.360691
v -3.842166 0.783962 0.429663
v -3.842166 0.783962 0.336551
usemtl Stone2
f 1 3 5
f 3 2 5
f 2 4 5
f 4 1 5
f 3 1 6
f 2 3 6
f 4 2 6
f 1 4 6
f 7 9 11
f 9 8 11
f 8 10 11
f 10 7 11
f 9 7 12
f 8 9 12
f 10 8 12
f 7 10 12
usemtl Stone3
f 13 15 17
f 15 14 17
f 14 16 17
f 16 13 17
f 15 13 18
f 14 15 18
f 16 14 18
f 13 16 18
usemtl Stone4
f 19 21 23
f 21 20 23
f 20 22 23
f 22 19 23
f 21 19 24
f 20 21 24
f 22 20 24
f 19 22 24
f 25 27 29
f 27 26 29
f 26 28 29
f 28 25 29
f 27 25 30
f 26 27 30
f 28 26 30
f 25 28 30
usemtl Stone2
f 31 33 35
f 33 32 35
f 32 34 35
f 34 31 35
f 33 31 36
f 32 33 36
f 34 32 36
f 31 34 36
usemtl Stone4
f 37 39 41
f 39 38 41
f 38 40 41
f 40 37 41
f 39 37 42
f 38 39 42
f 40 38 42
f 37 40 42
usemtl Stone3
f 43 45 47
f 45 44 47
f 44 46 47
f 46 43 47
f 45 43 48
f 44 45 48
f 46 44 48
f 43 46 48
usemtl Stone1
f 49 51 53
f 51 50 53
f 50 52 53
f 52 49 53
f 51 49 54
f 50 51 54
f 52 50 54
f 49 52 54
usemtl Stone4
f 55 57 59
f 57 56 59
f 56 58 59
f 58 55 59
f 57 55 60
f 56 57 60
f 58 56 60
f 55 58 60
usemtl Stone1
f 61 63 65
f 63 62 65
f 62 64 65
f 64 61 65
f 63 61 66
f 62 63 66
f 64 62 66
f 61 64 66
usemtl Stone3
f 67 69 71
f 69 68 71
f 68 70 71
f 70 67 71
f 69 67 72
f 68 69 72
f 70 68 72
f 67 70 72
usemtl Stone1
f 73 75 77
f 75 74 77
f 74 76 77
f 76 73 77
f 75 73 78
f 74 75 78
f 76 74 78
f 73 76 78
usemtl Stone4
f 79 81 83
f 81 80 83
f 80 82 83
f 82 79 83
f 81 79 84
f 80 81 84
f 82 80 84
f 79 82 84
f 85 87 89
f 87 86 89
f 86 88 89
f 88 85 89
f 87 85 90
f 86 87 90
f 88 86 90
f 85 88 90
f 91 93 95
f 93 92 95
f 92 94 95
f 94 91 95
f 93 91 96
f 92 93 96
f 94 92 96
f 91 94 96
f 97 99 101
f 99 98 101
f 98 100 101
f 100 97 101
f 99 97 102
f 98 99 102
f 100 98 102
f 97 100 102
usemtl Stone3
f 103 105 107
f 105 104 107
f 104 106 107
f 106 103 107
f 105 103 108
f 104 105 108
f 106 104 108
f 103 106 108
usemtl Stone1
f 109 111 113
f 111 110 113
f 110 112 113
f 112 109 113
f 111 109 114
f 110 111 114
f 112 110 114
f 109 112 114
usemtl Stone4
f 115 117 119
f 117 116 119
f 116 118 119
f 118 115 119
f 117 115 120
f 116 117 120
f 118 116 120
f 115 118 120
f 121 123 125
f 123 122 125
f 122 124 125
f 124 121 125
f 123 121 126
f 122 123 126
f 124 122 126
f 121 124 126
usemtl Stone3
f 127 129 131
f 129 128 131
f 128 130 131
f 130 127 131
f 129 127 132
f 128 129 132
f 130 128 132
f 127 130 132
usemtl Stone4
f 133 135 137
f 135 134 137
f 134 136 137
f 136 133 137
f 135 133 138
f 134 135 138
f 136 134 138
f 133 136 138
usemtl Stone1
f 139 141 143
f 141 140 143
f 140 142 143
f 142 139 143
f 141 139 144
f 140 141 144
f 142 140 144
f 139 142 144
usemtl Stone3
f 145 147 149
f 147 146 149
f 146 148 149
f 148 145 149
f 147 145 150
f 146 147 150
f 148 146 150
f 145 148 150
usemtl Stone4
f 151 153 155
f 153 152 155
f 152 154 155
f 154 151 155
f 153 151 156
f 152 153 156
f 154 152 156
f 151 154 156
usemtl Stone3
f 157 159 161
f 159 158 161
f 158 160 161
f 160 157 161
f 159 157 162
f 158 159 162
f 160 158 162
f 157 160 162
usemtl Stone1
f 163 165 167
f 165 164 167
f 164 166 167
f 166 163 167
f 165 163 168
f 164 165 168
f 166 164 168
f 163 166 168
usemtl Stone4
f 169 171 173
f 171 170 173
f 170 172 173
f 172 169 173
f 171 169 174
f 170 171 174
f 172 170 174
f 169 172 174
usemtl Stone3
f 175 177 179
f 177 176 179
f 176 178 179
f 178 175 179
f 177 175 180
f 176 177 180
f 178 176 180
f 175 178 180
usemtl Stone4
f 181 183 185
f 183 182 185
f 182 184 185
f 184 181 185
f 183 181 186
f 182 183 186
f 184 182 186
f 181 184 186
usemtl Stone3
f 187 189 191
f 189 188 191
f 188 190 191
f 190 187 191
f 189 187 192
f 188 189 192
f 190 188 192
f 187 190 192
usemtl Stone2
f 193 195 197
f 195 194 197
f 194 196 197
f 196 193 197
f 195 193 198
f 194 195 198
f 196 194 198
f 193 196 198
f 199 201 203
f 201 200 203
f 200 202 203
f 202 199 203
f 201 199 204
f 200 201 204
f 202 200 204
f 199 202 204
usemtl Stone1
f 205 207 209
f 207 206 209
f 206 208 209
f 208 205 209
f 207 205 210
f 206 207 210
f 208 206 210
f 205 208 210
usemtl Stone3
f 211 213 215
f 213 212 215
f 212 214 215
f 214 211 215
f 213 211 216
f 212 213 216
f 214 212 216
f 211 214 216
f 217 219 221
f 219 218 221
f 218 220 221
f 220 217 221
f 219 217 222
f 218 219 222
f 220 218 222
f 217 220 222
f 223 225 227
f 225 224 227
f 224 226 227
f 226 223 227
f 225 223 228
f 224 225 228
f 226 224 228
f 223 226 228
usemtl Stone1
f 229 231 233
f 231 230 233
f 230 232 233
f 232 229 233
f 231 229 234
f 230 231 234
f 232 230 234
f 229 232 234
usemtl Stone4
f 235 237 239
f 237 236 239
f 236 238 239
f 238 235 239
f 237 235 240
f 236 237 240
f 238 236 240
f 235 238 240
f 241 243 245
f 243 242 245
f 242 244 245
f 244 241 245
f 243 241 246
f 242 243 246
f 244 242 246
f 241 244 246
usemtl Stone1
f 247 249 251
f 249 248 251
f 248 250 251
f 250 247 251
f 249 247 252
f 248 249 252
f 250 248 252
f 247 250 252
usemtl Stone3
f 253 255 257
f 255 254 257
f 254 256 257
f 256 253 257
f 255 253 258
f 254 255 258
f 256 254 258
f 253 256 258
usemtl Stone4
f 259 261 263
f 261 260 263
f 260 262 263
f 262 259 263
f 261 259 264
f 260 261 264
f 262 260 264
f 259 262 264
f 265 267 269
f 267 266 269
f 266 268 269
f 268 265 269
f 267 265 270
f 266 267 270
f 268 266 270
f 265 268 270
usemtl Stone1
f 271 273 275
f 273 272 275
f 272 274 275
f 274 271 275
f 273 271 276
f 272 273 276
f 274 272 276
f 271 274 276
usemtl Stone3
f 277 279 281
f 279 278 281
f 278 280 281
f 280 277 281
f 279 277 282
f 278 279 282
f 280 278 282
f 277 280 282
f 283 285 287
f 285 284 287
f 284 286 287
f 286 283 287
f 285 283 288
f 284 285 288
f 286 284 288
f 283 286 288
usemtl Stone1
f 289 291 293
f 291 290 293
f 290 292 293
f 292 289 293
f 291 289 294
f 290 291 294
f 292 290 294
f 289 292 294
usemtl Stone2
f 295 297 299
f 297 296 299
f 296 298 299
f 298 295 299
f 297 295 300
f 296 297 300
f 298 296 300
f 295 298 300
usemtl Stone1
f 301 303 305
f 303 302 305
f 302 304 305
f 304 301 305
f 303 301 306
f 302 303 306
f 304 302 306
f 301 304 306
f 307 309 311
f 309 308 311
f 308 310 311
f 310 307 311
f 309 307 312
f 308 309 312
f 310 308 312
f 307 310 312
f 313 315 317
f 315 314 317
f 314 316 317
f 316 313 317
f 315 313 318
f 314 315 318
f 316 314 318
f 313 316 318
usemtl Stone4
f 319 321 323
f 321 320 323
f 320 322 323
f 322 319 323
f 321 319 324
f 320 321 324
f 322 320 324
f 319 322 324
usemtl Stone1
f 325 327 329
f 327 326 329
f 326 328 329
f 328 325 329
f 327 325 330
f 326 327 330
f 328 326 330
f 325 328 330
usemtl Stone3
f 331 333 335
f 333 332 335
f 332 334 335
f 334 331 335
f 333 331 336
f 332 333 336
f 334 332 336
f 331 334 336
f 337 339 341
f 339 338 341
f 338 340 341
f 340 337 341
f 339 337 342
f 338 339 342
f 340 338 342
f 337 340 342
usemtl Stone4
f 343 345 347
f 345 344 347
f 344 346 347
f 346 343 347
f 345 343 348
f 344 345 348
f 346 344 348
f 343 346 348
usemtl Stone3
f 349 351 353
f 351 350 353
f 350 352 353
f 352 349 353
f 351 349 354
f 350 351 354
f 352 350 354
f 349 352 354
usemtl Stone1
f 355 357 359
f 357 356 359
f 356 358 359
f 358 355 359
f 357 355 360
f 356 357 360
f 358 356 360
f 355 358 360
usemtl Stone4
f 361 363 365
f 363 362 365
f 362 364 365
f 364 361 365
f 363 361 366
f 362 363 366
f 364 362 366
f 361 364 366
usemtl Stone3
f 367 369 371
f 369 368 371
f 368 370 371
f 370 367 371
f 369 367 372
f 368 369 372
f 370 368 372
f 367 370 372
usemtl Stone4
f 373 375 377
f 375 374 377
f 374 376 377
f 376 373 377
f 375 373 378
f 374 375 378
f 376 374 378
f 373 376 378
usemtl Stone2
f 379 381 383
f 381 380 383
f 380 382 383
f 382 379 383
f 381 379 384
f 380 381 384
f 382 380 384
f 379 382 384
f 385 387 389
f 387 386 389
f 386 388 389
f 388 385 389
f 387 385 390
f 386 387 390
f 388 386 390
f 385 388 390
usemtl Stone1
f 391 393 395
f 393 392 395
f 392 394 395
f 394 391 395
f 393 391 396
f 392 393 396
f 394 392 396
f 391 394 396
usemtl Stone2
f 397 399 401
f 399 398 401
f 398 400 401
f 400 397 401
f 399 397 402
f 398 399 402
f 400 398 402
f 397 400 402
usemtl Stone4
f 403 405 407
f 405 404 407
f 404 406 407
f 406 403 407
f 405 403 408
f 404 405 408
f 406 404 408
f 403 406 408
f 409 411 413
f 411 410 413
f 410 412 413
f 412 409 413
f 411 409 414
f 410 411 414
f 412 410 414
f 409 412 414
f 415 417 419
f 417 416 419
f 416 418 419
f 418 415 419
f 417 415 420
f 416 417 420
f 418 416 420
f 415 418 420
usemtl Stone2
f 421 423 425
f 423 422 425
f 422 424 425
f 424 421 425
f 423 421 426
f 422 423 426
f 424 422 426
f 421 424 426
usemtl Stone1
f 427 429 431
f 429 428 431
f 428 430 431
f 430 427 431
f 429 427 432
f 428 429 432
f 430 428 432
f 427 430 432
usemtl Stone2
f 433 435 437
f 435 434 437
f 434 436 437
f 436 433 437
f 435 433 438
f 434 435 438
f 436 434 438
f 433 436 438
usemtl Stone4
f 439 441 443
f 441 440 443
f 440 442 443
f 442 439 443
f 441 439 444
f 440 441 444
f 442 440 444
f 439 442 444
usemtl Stone1
f 445 447 449
f 447 446 449
f 446 448 449
f 448 445 449
f 447 445 450
f 446 447 450
f 448 446 450
f 445 448 450
f 451 453 455
f 453 452 455
f 452 454 455
f 454 451 455
f 453 451 456
f 452 453 456
f 454 452 456
f 451 454 456
f 457 459 461
f 459 458 461
f 458 460 461
f 460 457 461
f 459 457 462
f 458 459 462
f 460 458 462
f 457 460 462
usemtl Stone3
f 463 465 467
f 465 464 467
f 464 466 467
f 466 463 467
f 465 463 468
f 464 465 468
f 466 464 468
f 463 466 468
f 469 471 473
f 471 470 473
f 470 472 473
f 472 469 473
f 471 469 474
f 470 471 474
f 472 470 474
f 469 472 474
usemtl Stone2
f 475 477 479
f 477 476 479
f 476 478 479
f 478 475 479
f 477 475 480
f 476 477 480
f 478 476 480
f 475 478 480
usemtl Stone1
f 481 483 485
f 483 482 485
f 482 484 485
f 484 481 485
f 483 481 486
f 482 483 486
f 484 482 486
f 481 484 486
usemtl Stone3
f 487 489 491
f 489 488 491
f 488 490 491
f 490 487 491
f 489 487 492
f 488 489 492
f 490 488 492
f 487 490 492
f 493 495 497
f 495 494 497
f 494 496 497
f 496 493 497
f 495 493 498
f 494 495 498
f 496 494 498
f 493 496 498
usemtl Stone1
f 499 501 503
f 501 500 503
f 500 502 503
f 502 499 503
f 501 499 504
f 500 501 504
f 502 500 504
f 499 502 504
f 505 507 509
f 507 506 509
f 506 508 509
f 508 505 509
f 507 505 510
f 506 507 510
f 508 506 510
f 505 508 510
usemtl Stone4
f 511 513 515
f 513 512 515
f 512 514 515
f 514 511 515
f 513 511 516
f 512 513 516
f 514 512 516
f 511 514 516
usemtl Stone2
f 517 519 521
f 519 518 521
f 518 520 521
f 520 517 521
f 519 517 522
f 518 519 522
f 520 518 522
f 517 520 522
usemtl Stone4
f 523 525 527
f 525 524 527
f 524 526 527
f 526 523 527
f 525 523 528
f 524 525 528
f 526 524 528
f 523 526 528
f 529 531 533
f 531 530 533
f 530 532 533
f 532 529 533
f 531 529 534
f 530 531 534
f 532 530 534
f 529 532 534
usemtl Stone3
f 535 537 539
f 537 536 539
f 536 538 539
f 538 535 539
f 537 535 540
f 536 537 540
f 538 536 540
f 535 538 540
f 541 543 545
f 543 542 545
f 542 544 545
f 544 541 545
f 543 541 546
f 542 543 546
f 544 542 546
f 541 544 546
f 547 549 551
f 549 548 551
f 548 550 551
f 550 547 551
f 549 547 552
f 548 549 552
f 550 548 552
f 547 550 552
usemtl Stone1
f 553 555 557
f 555 554 557
f 554 556 557
f 556 553 557
f 555 553 558
f 554 555 558
f 556 554 558
f 553 556 558
f 559 561 563
f 561 560 563
f 560 562 563
f 562 559 563
f 561 559 564
f 560 561 564
f 562 560 564
f 559 562 564
usemtl Stone2
f 565 567 569
f 567 566 569
f 566 568 569
f 568 565 569
f 567 565 570
f 566 567 570
f 568 566 570
f 565 568 570
usemtl Stone4
f 571 573 575
f 573 572 575
f 572 574 575
f 574 571 575
f 573 571 576
f 572 573 576
f 574 572 576
f 571 574 576
usemtl Stone2
f 577 579 581
f 579 578 581
f 578 580 581
f 580 577 581
f 579 577 582
f 578 579 582
f 580 578 582
f 577 580 582
f 583 585 587
f 585 584 587
f 584 586 587
f 586 583 587
f 585 583 588
f 584 585 588
f 586 584 588
f 583 586 588
f 589 591 593
f 591 590 593
f 590 592 593
f 592 589 593
f 591 589 594
f 590 591 594
f 592 590 594
f 589 592 594
f 595 597 599
f 597 596 599
f 596 598 599
f 598 595 599
f 597 595 600
f 596 597 600
f 598 596 600
f 595 598 600
usemtl Stone1
f 601 603 605
f 603 602 605
f 602 604 605
f 604 601 605
f 603 601 606
f 602 603 606
f 604 602 606
f 601 604 606
usemtl Stone3
f 607 609 611
f 609 608 611
f 608 610 611
f 610 607 611
f 609 607 612
f 608 609 612
f 610 608 612
f 607 610 612
usemtl Stone4
f 613 615 617
f 615 614 617
f 614 616 617
f 616 613 617
f 615 613 618
f 614 615 618
f 616 614 618
f 613 616 618
usemtl Stone3
f 619 621 623
f 621 620 623
f 620 622 623
f 622 619 623
f 621 619 624
f 620 621 624
f 622 620 624
f 619 622 624
f 625 627 629
f 627 626 629
f 626 628 629
f 628 625 629
f 627 625 630
f 626 627 630
f 628 626 630
f 625 628 630
usemtl Stone1
f 631 633 635
f 633 632 635
f 632 634 635
f 634 631 635
f 633 631 636
f 632 633 636
f 634 632 636
f 631 634 636
usemtl Stone2
f 637 639 641
f 639 638 641
f 638 640 641
f 640 637 641
f 639 637 642
f 638 639 642
f 640 638 642
f 637 640 642
usemtl Stone1
f 643 645 647
f 645 644 647
f 644 646 647
f 646 643 647
f 645 643 648
f 644 645 648
f 646 644 648
f 643 646 648
usemtl Stone3
f 649 651 653
f 651 650 653
f 650 652 653
f 652 649 653
f 651 649 654
f 650 651 654
f 652 650 654
f 649 652 654
f 655 657 659
f 657 656 659
f 656 658 659
f 658 655 659
f 657 655 660
f 656 657 660
f 658 656 660
f 655 658 660
usemtl Stone2
f 661 663 665
f 663 662 665
f 662 664 665
f 664 661 665
f 663 661 666
f 662 663 666
f 664 662 666
f 661 664 666
usemtl Stone3
f 667 669 671
f 669 668 671
f 668 670 671
f 670 667 671
f 669 667 672
f 668 669 672
f 670 668 672
f 667 670 672
usemtl Stone2
f 673 675 677
f 675 674 677
f 674 676 677
f 676 673 677
f 675 673 678
f 674 675 678
f 676 674 678
f 673 676 678
usemtl Stone4
f 679 681 683
f 681 680 683
f 680 682 683
f 682 679 683
f 681 679 684
f 680 681 684
f 682 680 684
f 679 682 684
usemtl Stone1
f 685 687 689
f 687 686 689
f 686 688 689
f 688 685 689
f 687 685 690
f 686 687 690
f 688 686 690
f 685 688 690
usemtl Stone2
f 691 693 695
f 693 692 695
f 692 694 695
f 694 691 695
f 693 691 696
f 692 693 696
f 694 692 696
f 691 694 696
usemtl Stone4
f 697 699 701
f 699 698 701
f 698 700 701
f 700 697 701
f 699 697 702
f 698 699 702
f 700 698 702
f 697 700 702
usemtl Stone2
f 703 705 707
f 705 704 707
f 704 706 707
f 706 703 707
f 705 703 708
f 704 705 708
f 706 704 708
f 703 706 708
usemtl Stone3
f 709 711 713
f 711 710 713
f 710 712 713
f 712 709 713
f 711 709 714
f 710 711 714
f 712 710 714
f 709 712 714
usemtl Stone2
f 715 717 719
f 717 716 719
f 716 718 719
f 718 715 719
f 717 715 720
f 716 717 720
f 718 716 720
f 715 718 720
f 721 723 725
f 723 722 725
f 722 724 725
f 724 721 725
f 723 721 726
f 722 723 726
f 724 722 726
f 721 724 726
usemtl Stone1
f 727 729 731
f 729 728 731
f 728 730 731
f 730 727 731
f 729 727 732
f 728 729 732
f 730 728 732
f 727 730 732
usemtl Stone3
f 733 735 737
f 735 734 737
f 734 736 737
f 736 733 737
f 735 733 738
f 734 735 738
f 736 734 738
f 733 736 738
usemtl Stone4
f 739 741 743
f 741 740 743
f 740 742 743
f 742 739 743
f 741 739 744
f 740 741 744
f 742 740 744
f 739 742 744
f 745 747 749
f 747 746 749
f 746 748 749
f 748 745 749
f 747 745 750
f 746 747 750
f 748 746 750
f 745 748 750
usemtl Stone1
f 751 753 755
f 753 752 755
f 752 754 755
f 754 751 755
f 753 751 756
f 752 753 756
f 754 752 756
f 751 754 756
usemtl Stone4
f 757 759 761
f 759 758 761
f 758 760 761
f 760 757 761
f 759 757 762
f 758 759 762
f 760 758 762
f 757 760 762
usemtl Stone1
f 763 765 767
f 765 764 767
f 764 766 767
f 766 763 767
f 765 763 768
f 764 765 768
f 766 764 768
f 763 766 768
usemtl Stone2
f 769 771 773
f 771 770 773
f 770 772 773
f 772 769 773
f 771 769 774
f 770 771 774
f 772 770 774
f 769 772 774
usemtl Stone4
f 775 777 779
f 777 776 779
f 776 778 779
f 778 775 779
f 777 775 780
f 776 777 780
f 778 776 780
f 775 778 780
usemtl Stone2
f 781 783 785
f 783 782 785
f 782 784 785
f 784 781 785
f 783 781 786
f 782 783 786
f 784 782 786
f 781 784 786
usemtl Stone1
f 787 789 791
f 789 788 791
f 788 790 791
f 790 787 791
f 789 787 792
f 788 789 792
f 790 788 792
f 787 790 792
f 793 795 797
f 795 794 797
f 794 796 797
f 796 793 797
f 795 793 798
f 794 795 798
f 796 794 798
f 793 796 798
f 799 801 803
f 801 800 803
f 800 802 803
f 802 799 803
f 801 799 804
f 800 801 804
f 802 800 804
f 799 802 804
usemtl Stone4
f 805 807 809
f 807 806 809
f 806 808 809
f 808 805 809
f 807 805 810
f 806 807 810
f 808 806 810
f 805 808 810
usemtl Stone2
f 811 813 815
f 813 812 815
f 812 814 815
f 814 811 815
f 813 811 816
f 812 813 816
f 814 812 816
f 811 814 816
f 817 819 821
f 819 818 821
f 818 820 821
f 820 817 821
f 819 817 822
f 818 819 822
f 820 818 822
f 817 820 822
usemtl Stone4
f 823 825 827
f 825 824 827
f 824 826 827
f 826 823 827
f 825 823 828
f 824 825 828
f 826 824 828
f 823 826 828
usemtl Stone1
f 829 831 833
f 831 830 833
f 830 832 833
f 832 829 833
f 831 829 834
f 830 831 834
f 832 830 834
f 829 832 834
usemtl Stone3
f 835 837 839
f 837 836 839
f 836 838 839
f 838 835 839
f 837 835 840
f 836 837 840
f 838 836 840
f 835 838 840
usemtl Stone4
f 841 843 845
f 843 842 845
f 842 844 845
f 844 841 845
f 843 841 846
f 842 843 846
f 844 842 846
f 841 844 846
f 847 849 851
f 849 848 851
f 848 850 851
f 850 847 851
f 849 847 852
f 848 849 852
f 850 848 852
f 847 850 852
usemtl Stone2
f 853 855 857
f 855 854 857
f 854 856 857
f 856 853 857
f 855 853 858
f 854 855 858
f 856 854 858
f 853 856 858
f 859 861 863
f 861 860 863
f 860 862 863
f 862 859 863
f 861 859 864
f 860 861 864
f 862 860 864
f 859 862 864
usemtl Stone3
f 865 867 869
f 867 866 869
f 866 868 869
f 868 865 869
f 867 865 870
f 866 867 870
f 868 866 870
f 865 868 870
usemtl Stone1
f 871 873 875
f 873 872 875
f 872 874 875
f 874 871 875
f 873 871 876
f 872 873 876
f 874 872 876
f 871 874 876
usemtl Stone4
f 877 879 881
f 879 878 881
f 878 880 881
f 880 877 881
f 879 877 882
f 878 879 882
f 880 878 882
f 877 880 882
usemtl Stone2
f 883 885 887
f 885 884 887
f 884 886 887
f 886 883 887
f 885 883 888
f 884 885 888
f 886 884 888
f 883 886 888
usemtl Stone4
f 889 891 893
f 891 890 893
f 890 892 893
f 892 889 893
f 891 889 894
f 890 891 894
f 892 890 894
f 889 892 894
f 895 897 899
f 897 896 899
f 896 898 899
f 898 895 899
f 897 895 900
f 896 897 900
f 898 896 900
f 895 898 900
usemtl Stone2
f 901 903 905
f 903 902 905
f 902 904 905
f 904 901 905
f 903 901 906
f 902 903 906
f 904 902 906
f 901 904 906
usemtl Stone3
f 907 909 911
f 909 908 911
f 908 910 911
f 910 907 911
f 909 907 912
f 908 909 912
f 910 908 912
f 907 910 912
usemtl Stone1
f 913 915 917
f 915 914 917
f 914 916 917
f 916 913 917
f 915 913 918
f 914 915 918
f 916 914 918
f 913 916 918
usemtl Stone2
f 919 921 923
f 921 920 923
f 920 922 923
f 922 919 923
f 921 919 924
f 920 921 924
f 922 920 924
f 919 922 924
usemtl Stone1
f 925 927 929
f 927 926 929
f 926 928 929
f 928 925 929
f 927 925 930
f 926 927 930
f 928 926 930
f 925 928 930
usemtl Stone2
f 931 933 935
f 933 932 935
f 932 934 935
f 934 931 935
f 933 931 936
f 932 933 936
f 934 932 936
f 931 934 936
f 937 939 941
f 939 938 941
f 938 940 941
f 940 937 941
f 939 937 942
f 938 939 942
f 940 938 942
f 937 940 942
usemtl Stone1
f 943 945 947
f 945 944 947
f 944 946 947
f 946 943 947
f 945 943 948
f 944 945 948
f 946 944 948
f 943 946 948
usemtl Stone2
f 949 951 953
f 951 950 953
f 950 952 953
f 952 949 953
f 951 949 954
f 950 951 954
f 952 950 954
f 949 952 954
usemtl Stone3
f 955 957 959
f 957 956 959
f 956 958 959
f 958 955 959
f 957 955 960
f 956 957 960
f 958 956 960
f 955 958 960
usemtl Stone4
f 961 963 965
f 963 962 965
f 962 964 965
f 964 961 965
f 963 961 966
f 962 963 966
f 964 962 966
f 961 964 966
f 967 969 971
f 969 968 971
f 968 970 971
f 970 967 971
f 969 967 972
f 968 969 972
f 970 968 972
f 967 970 972
f 973 975 977
f 975 974 977
f 974 976 977
f 976 973 977
f 975 973 978
f 974 975 978
f 976 974 978
f 973 976 978
usemtl Stone1
f 979 981 983
f 981 980 983
f 980 982 983
f 982 979 983
f 981 979 984
f 980 981 984
f 982 980 984
f 979 982 984
usemtl Stone3
f 985 987 989
f 987 986 989
f 986 988 989
f 988 985 989
f 987 985 990
f 986 987 990
f 988 986 990
f 985 988 990
f 991 993 995
f 993 992 995
f 992 994 995
f 994 991 995
f 993 991 996
f 992 993 996
f 994 992 996
f 991 994 996
usemtl Stone4
f 997 999 1001
f 999 998 1001
f 998 1000 1001
f 1000 997 1001
f 999 997 1002
f 998 999 1002
f 1000 998 1002
f 997 1000 1002
usemtl Stone3
f 1003 1005 1007
f 1005 1004 1007
f 1004 1006 1007
f 1006 1003 1007
f 1005 1003 1008
f 1004 1005 1008
f 1006 1004 1008
f 1003 1006 1008
usemtl Stone2
f 1009 1011 1013
f 1011 1010 1013
f 1010 1012 1013
f 1012 1009 1013
f 1011 1009 1014
f 1010 1011 1014
f 1012 1010 1014
f 1009 1012 1014
f 1015 1017 1019
f 1017 1016 1019
f 1016 1018 1019
f 1018 1015 1019
f 1017 1015 1020
f 1016 1017 1020
f 1018 1016 1020
f 1015 1018 1020
usemtl Stone4
f 1021 1023 1025
f 1023 1022 1025
f 1022 1024 1025
f 1024 1021 1025
f 1023 1021 1026
f 1022 1023 1026
f 1024 1022 1026
f 1021 1024 1026
f 1027 1029 1031
f 1029 1028 1031
f 1028 1030 1031
f 1030 1027 1031
f 1029 1027 1032
f 1028 1029 1032
f 1030 1028 1032
f 1027 1030 1032
usemtl Stone1
f 1033 1035 1037
f 1035 1034 1037
f 1034 1036 1037
f 1036 1033 1037
f 1035 1033 1038
f 1034 1035 1038
f 1036 1034 1038
f 1033 1036 1038
f 1039 1041 1043
f 1041 1040 1043
f 1040 1042 1043
f 1042 1039 1043
f 1041 1039 1044
f 1040 1041 1044
f 1042 1040 1044
f 1039 1042 1044
f 1045 1047 1049
f 1047 1046 1049
f 1046 1048 1049
f 1048 1045 1049
f 1047 1045 1050
f 1046 1047 1050
f 1048 1046 1050
f 1045 1048 1050
f 1051 1053 1055
f 1053 1052 1055
f 1052 1054 1055
f 1054 1051 1055
f 1053 1051 1056
f 1052 1053 1056
f 1054 1052 1056
f 1051 1054 1056
usemtl Stone3
f 1057 1059 1061
f 1059 1058 1061
f 1058 1060 1061
f 1060 1057 1061
f 1059 1057 1062
f 1058 1059 1062
f 1060 1058 1062
f 1057 1060 1062
usemtl Stone4
f 1063 1065 1067
f 1065 1064 1067
f 1064 1066 1067
f 1066 1063 1067
f 1065 1063 1068
f 1064 1065 1068
f 1066 1064 1068
f 1063 1066 1068
usemtl Stone1
f 1069 1071 1073
f 1071 1070 1073
f 1070 1072 1073
f 1072 1069 1073
f 1071 1069 1074
f 1070 1071 1074
f 1072 1070 1074
f 1069 1072 1074
usemtl Stone3
f 1075 1077 1079
f 1077 1076 1079
f 1076 1078 1079
f 1078 1075 1079
f 1077 1075 1080
f 1076 1077 1080
f 1078 1076 1080
f 1075 1078 1080
usemtl Stone1
f 1081 1083 1085
f 1083 1082 1085
f 1082 1084 1085
f 1084 1081 1085
f 1083 1081 1086
f 1082 1083 1086
f 1084 1082 1086
f 1081 1084 1086
usemtl Stone2
f 1087 1089 1091
f 1089 1088 1091
f 1088 1090 1091
f 1090 1087 1091
f 1089 1087 1092
f 1088 1089 1092
f 1090 1088 1092
f 1087 1090 1092
usemtl Stone1
f 1093 1095 1097
f 1095 1094 1097
f 1094 1096 1097
f 1096 1093 1097
f 1095 1093 1098
f 1094 1095 1098
f 1096 1094 1098
f 1093 1096 1098
usemtl Stone4
f 1099 1101 1103
f 1101 1100 1103
f 1100 1102 1103
f 1102 1099 1103
f 1101 1099 1104
f 1100 1101 1104
f 1102 1100 1104
f 1099 1102 1104
usemtl Stone1
f 1105 1107 1109
f 1107 1106 1109
f 1106 1108 1109
f 1108 1105 1109
f 1107 1105 1110
f 1106 1107 1110
f 1108 1106 1110
f 1105 1108 1110
f 1111 1113 1115
f 1113 1112 1115
f 1112 1114 1115
f 1114 1111 1115
f 1113 1111 1116
f 1112 1113 1116
f 1114 1112 1116
f 1111 1114 1116
f 1117 1119 1121
f 1119 1118 1121
f 1118 1120 1121
f 1120 1117 1121
f 1119 1117 1122
f 1118 1119 1122
f 1120 1118 1122
f 1117 1120 1122
usemtl Stone2
f 1123 1125 1127
f 1125 1124 1127
f 1124 1126 1127
f 1126 1123 1127
f 1125 1123 1128
f 1124 1125 1128
f 1126 1124 1128
f 1123 1126 1128
usemtl Stone1
f 1129 1131 1133
f 1131 1130 1133
f 1130 1132 1133
f 1132 1129 1133
f 1131 1129 1134
f 1130 1131 1134
f 1132 1130 1134
f 1129 1132 1134
usemtl Stone2
f 1135 1137 1139
f 1137 1136 1139
f 1136 1138 1139
f 1138 1135 1139
f 1137 1135 1140
f 1136 1137 1140
f 1138 1136 1140
f 1135 1138 1140
usemtl Stone1
f 1141 1143 1145
f 1143 1142 1145
f 1142 1144 1145
f 1144 1141 1145
f 1143 1141 1146
f 1142 1143 1146
f 1144 1142 1146
f 1141 1144 1146
f 1147 1149 1151
f 1149 1148 1151
f 1148 1150 1151
f 1150 1147 1151
f 1149 1147 1152
f 1148 1149 1152
f 1150 1148 1152
f 1147 1150 1152
usemtl Stone2
f 1153 1155 1157
f 1155 1154 1157
f 1154 1156 1157
f 1156 1153 1157
f 1155 1153 1158
f 1154 1155 1158
f 1156 1154 1158
f 1153 1156 1158
usemtl Stone3
f 1159 1161 1163
f 1161 1160 1163
f 1160 1162 1163
f 1162 1159 1163
f 1161 1159 1164
f 1160 1161 1164
f 1162 1160 1164
f 1159 1162 1164
usemtl Stone2
f 1165 1167 1169
f 1167 1166 1169
f 1166 1168 1169
f 1168 1165 1169
f 1167 1165 1170
f 1166 1167 1170
f 1168 1166 1170
f 1165 1168 1170
usemtl Stone3
f 1171 1173 1175
f 1173 1172 1175
f 1172 1174 1175
f 1174 1171 1175
f 1173 1171 1176
f 1172 1173 1176
f 1174 1172 1176
f 1171 1174 1176
f 1177 1179 1181
f 1179 1178 1181
f 1178 1180 1181
f 1180 1177 1181
f 1179 1177 1182
f 1178 1179 1182
f 1180 1178 1182
f 1177 1180 1182
usemtl Stone4
f 1183 1185 1187
f 1185 1184 1187
f 1184 1186 1187
f 1186 1183 1187
f 1185 1183 1188
f 1184 1185 1188
f 1186 1184 1188
f 1183 1186 1188
f 1189 1191 1193
f 1191 1190 1193
f 1190 1192 1193
f 1192 1189 1193
f 1191 1189 1194
f 1190 1191 1194
f 1192 1190 1194
f 1189 1192 1194
usemtl Stone2
f 1195 1197 1199
f 1197 1196 1199
f 1196 1198 1199
f 1198 1195 1199
f 1197 1195 1200
f 1196 1197 1200
f 1198 1196 1200
f 1195 1198 1200
f 1201 1203 1205
f 1203 1202 1205
f 1202 1204 1205
f 1204 1201 1205
f 1203 1201 1206
f 1202 1203 1206
f 1204 1202 1206
f 1201 1204 1206
f 1207 1209 1211
f 1209 1208 1211
f 1208 1210 1211
f 1210 1207 1211
f 1209 1207 1212
f 1208 1209 1212
f 1210 1208 1212
f 1207 1210 1212
usemtl Stone1
f 1213 1215 1217
f 1215 1214 1217
f 1214 1216 1217
f 1216 1213 1217
f 1215 1213 1218
f 1214 1215 1218
f 1216 1214 1218
f 1213 1216 1218
usemtl Stone2
f 1219 1221 1223
f 1221 1220 1223
f 1220 1222 1223
f 1222 1219 1223
f 1221 1219 1224
f 1220 1221 1224
f 1222 1220 1224
f 1219 1222 1224
usemtl Stone1
f 1225 1227 1229
f 1227 1226 1229
f 1226 1228 1229
f 1228 1225 1229
f 1227 1225 1230
f 1226 1227 1230
f 1228 1226 1230
f 1225 1228 1230
usemtl Stone4
f 1231 1233 1235
f 1233 1232 1235
f 1232 1234 1235
f 1234 1231 1235
f 1233 1231 1236
f 1232 1233 1236
f 1234 1232 1236
f 1231 1234 1236
f 1237 1239 1241
f 1239 1238 1241
f 1238 1240 1241
f 1240 1237 1241
f 1239 1237 1242
f 1238 1239 1242
f 1240 1238 1242
f 1237 1240 1242
usemtl Stone1
f 1243 1245 1247
f 1245 1244 1247
f 1244 1246 1247
f 1246 1243 1247
f 1245 1243 1248
f 1244 1245 1248
f 1246 1244 1248
f 1243 1246 1248
f 1249 1251 1253
f 1251 1250 1253
f 1250 1252 1253
f 1252 1249 1253
f 1251 1249 1254
f 1250 1251 1254
f 1252 1250 1254
f 1249 1252 1254
f 1255 1257 1259
f 1257 1256 1259
f 1256 1258 1259
f 1258 1255 1259
f 1257 1255 1260
f 1256 1257 1260
f 1258 1256 1260
f 1255 1258 1260
usemtl Stone2
f 1261 1263 1265
f 1263 1262 1265
f 1262 1264 1265
f 1264 1261 1265
f 1263 1261 1266
f 1262 1263 1266
f 1264 1262 1266
f 1261 1264 1266
f 1267 1269 1271
f 1269 1268 1271
f 1268 1270 1271
f 1270 1267 1271
f 1269 1267 1272
f 1268 1269 1272
f 1270 1268 1272
f 1267 1270 1272
usemtl Stone4
f 1273 1275 1277
f 1275 1274 1277
f 1274 1276 1277
f 1276 1273 1277
f 1275 1273 1278
f 1274 1275 1278
f 1276 1274 1278
f 1273 1276 1278
usemtl Stone1
f 1279 1281 1283
f 1281 1280 1283
f 1280 1282 1283
f 1282 1279 1283
f 1281 1279 1284
f 1280 1281 1284
f 1282 1280 1284
f 1279 1282 1284
usemtl Stone2
f 1285 1287 1289
f 1287 1286 1289
f 1286 1288 1289
f 1288 1285 1289
f 1287 1285 1290
f 1286 1287 1290
f 1288 1286 1290
f 1285 1288 1290
f 1291 1293 1295
f 1293 1292 1295
f 1292 1294 1295
f 1294 1291 1295
f 1293 1291 1296
f 1292 1293 1296
f 1294 1292 1296
f 1291 1294 1296
usemtl Stone4
f 1297 1299 1301
f 1299 1298 1301
f 1298 1300 1301
f 1300 1297 1301
f 1299 1297 1302
f 1298 1299 1302
f 1300 1298 1302
f 1297 1300 1302
f 1303 1305 1307
f 1305 1304 1307
f 1304 1306 1307
f 1306 1303 1307
f 1305 1303 1308
f 1304 1305 1308
f 1306 1304 1308
f 1303 1306 1308
usemtl Stone1
f 1309 1311 1313
f 1311 1310 1313
f 1310 1312 1313
f 1312 1309 1313
f 1311 1309 1314
f 1310 1311 1314
f 1312 1310 1314
f 1309 1312 1314
usemtl Stone2
f 1315 1317 1319
f 1317 1316 1319
f 1316 1318 1319
f 1318 1315 1319
f 1317 1315 1320
f 1316 1317 1320
f 1318 1316 1320
f 1315 1318 1320
f 1321 1323 1325
f 1323 1322 1325
f 1322 1324 1325
f 1324 1321 1325
f 1323 1321 1326
f 1322 1323 1326
f 1324 1322 1326
f 1321 1324 1326
usemtl Stone1
f 1327 1329 1331
f 1329 1328 1331
f 1328 1330 1331
f 1330 1327 1331
f 1329 1327 1332
f 1328 1329 1332
f 1330 1328 1332
f 1327 1330 1332
usemtl Stone3
f 1333 1335 1337
f 1335 1334 1337
f 1334 1336 1337
f 1336 1333 1337
f 1335 1333 1338
f 1334 1335 1338
f 1336 1334 1338
f 1333 1336 1338
usemtl Stone4
f 1339 1341 1343
f 1341 1340 1343
f 1340 1342 1343
f 1342 1339 1343
f 1341 1339 1344
f 1340 1341 1344
f 1342 1340 1344
f 1339 1342 1344
f 1345 1347 1349
f 1347 1346 1349
f 1346 1348 1349
f 1348 1345 1349
f 1347 1345 1350
f 1346 1347 1350
f 1348 1346 1350
f 1345 1348 1350
usemtl Stone2
f 1351 1353 1355
f 1353 1352 1355
f 1352 1354 1355
f 1354 1351 1355
f 1353 1351 1356
f 1352 1353 1356
f 1354 1352 1356
f 1351 1354 1356
f 1357 1359 1361
f 1359 1358 1361
f 1358 1360 1361
f 1360 1357 1361
f 1359 1357 1362
f 1358 1359 1362
f 1360 1358 1362
f 1357 1360 1362
f 1363 1365 1367
f 1365 1364 1367
f 1364 1366 1367
f 1366 1363 1367
f 1365 1363 1368
f 1364 1365 1368
f 1366 1364 1368
f 1363 1366 1368
usemtl Stone4
f 1369 1371 1373
f 1371 1370 1373
f 1370 1372 1373
f 1372 1369 1373
f 1371 1369 1374
f 1370 1371 1374
f 1372 1370 1374
f 1369 1372 1374
usemtl Stone2
f 1375 1377 1379
f 1377 1376 1379
f 1376 1378 1379
f 1378 1375 1379
f 1377 1375 1380
f 1376 1377 1380
f 1378 1376 1380
f 1375 1378 1380
usemtl Stone3
f 1381 1383 1385
f 1383 1382 1385
f 1382 1384 1385
f 1384 1381 1385
f 1383 1381 1386
f 1382 1383 1386
f 1384 1382 1386
f 1381 1384 1386
usemtl Stone4
f 1387 1389 1391
f 1389 1388 1391
f 1388 1390 1391
f 1390 1387 1391
f 1389 1387 1392
f 1388 1389 1392
f 1390 1388 1392
f 1387 1390 1392
f 1393 1395 1397
f 1395 1394 1397
f 1394 1396 1397
f 1396 1393 1397
f 1395 1393 1398
f 1394 1395 1398
f 1396 1394 1398
f 1393 1396 1398
usemtl Stone3
f 1399 1401 1403
f 1401 1400 1403
f 1400 1402 1403
f 1402 1399 1403
f 1401 1399 1404
f 1400 1401 1404
f 1402 1400 1404
f 1399 1402 1404
usemtl Stone1
f 1405 1407 1409
f 1407 1406 1409
f 1406 1408 1409
f 1408 1405 1409
f 1407 1405 1410
f 1406 1407 1410
f 1408 1406 1410
f 1405 1408 1410
usemtl Stone2
f 1411 1413 1415
f 1413 1412 1415
f 1412 1414 1415
f 1414 1411 1415
f 1413 1411 1416
f 1412 1413 1416
f 1414 1412 1416
f 1411 1414 1416
usemtl Stone3
f 1417 1419 1421
f 1419 1418 1421
f 1418 1420 1421
f 1420 1417 1421
f 1419 1417 1422
f 1418 1419 1422
f 1420 1418 1422
f 1417 1420 1422
usemtl Stone4
f 1423 1425 1427
f 1425 1424 1427
f 1424 1426 1427
f 1426 1423 1427
f 1425 1423 1428
f 1424 1425 1428
f 1426 1424 1428
f 1423 1426 1428
usemtl Stone1
f 1429 1431 1433
f 1431 1430 1433
f 1430 1432 1433
f 1432 1429 1433
f 1431 1429 1434
f 1430 1431 1434
f 1432 1430 1434
f 1429 1432 1434
f 1435 1437 1439
f 1437 1436 1439
f 1436 1438 1439
f 1438 1435 1439
f 1437 1435 1440
f 1436 1437 1440
f 1438 1436 1440
f 1435 1438 1440
f 1441 1443 1445
f 1443 1442 1445
f 1442 1444 1445
f 1444 1441 1445
f 1443 1441 1446
f 1442 1443 1446
f 1444 1442 1446
f 1441 1444 1446
usemtl Stone4
f 1447 1449 1451
f 1449 1448 1451
f 1448 1450 1451
f 1450 1447 1451
f 1449 1447 1452
f 1448 1449 1452
f 1450 1448 1452
f 1447 1450 1452
usemtl Stone1
f 1453 1455 1457
f 1455 1454 1457
f 1454 1456 1457
f 1456 1453 1457
f 1455 1453 1458
f 1454 1455 1458
f 1456 1454 1458
f 1453 1456 1458
usemtl Stone2
f 1459 1461 1463
f 1461 1460 1463
f 1460 1462 1463
f 1462 1459 1463
f 1461 1459 1464
f 1460 1461 1464
f 1462 1460 1464
f 1459 1462 1464
usemtl Stone1
f 1465 1467 1469
f 1467 1466 1469
f 1466 1468 1469
f 1468 1465 1469
f 1467 1465 1470
f 1466 1467 1470
f 1468 1466 1470
f 1465 1468 1470
usemtl Stone3
f 1471 1473 1475
f 1473 1472 1475
f 1472 1474 1475
f 1474 1471 1475
f 1473 1471 1476
f 1472 1473 1476
f 1474 1472 1476
f 1471 1474 1476
usemtl Stone2
f 1477 1479 1481
f 1479 1478 1481
f 1478 1480 1481
f 1480 1477 1481
f 1479 1477 1482
f 1478 1479 1482
f 1480 1478 1482
f 1477 1480 1482
usemtl Stone1
f 1483 1485 1487
f 1485 1484 1487
f 1484 1486 1487
f 1486 1483 1487
f 1485 1483 1488
f 1484 1485 1488
f 1486 1484 1488
f 1483 1486 1488
f 1489 1491 1493
f 1491 1490 1493
f 1490 1492 1493
f 1492 1489 1493
f 1491 1489 1494
f 1490 1491 1494
f 1492 1490 1494
f 1489 1492 1494
usemtl Stone2
f 1495 1497 1499
f 1497 1496 1499
f 1496 1498 1499
f 1498 1495 1499
f 1497 1495 1500
f 1496 1497 1500
f 1498 1496 1500
f 1495 1498 1500
f 1501 1503 1505
f 1503 1502 1505
f 1502 1504 1505
f 1504 1501 1505
f 1503 1501 1506
f 1502 1503 1506
f 1504 1502 1506
f 1501 1504 1506
usemtl Stone3
f 1507 1509 1511
f 1509 1508 1511
f 1508 1510 1511
f 1510 1507 1511
f 1509 1507 1512
f 1508 1509 1512
f 1510 1508 1512
f 1507 1510 1512
f 1513 1515 1517
f 1515 1514 1517
f 1514 1516 1517
f 1516 1513 1517
f 1515 1513 1518
f 1514 1515 1518
f 1516 1514 1518
f 1513 1516 1518
usemtl Stone4
f 1519 1521 1523
f 1521 1520 1523
f 1520 1522 1523
f 1522 1519 1523
f 1521 1519 1524
f 1520 1521 1524
f 1522 1520 1524
f 1519 1522 1524
usemtl Stone3
f 1525 1527 1529
f 1527 1526 1529
f 1526 1528 1529
f 1528 1525 1529
f 1527 1525 1530
f 1526 1527 1530
f 1528 1526 1530
f 1525 1528 1530
usemtl Stone2
f 1531 1533 1535
f 1533 1532 1535
f 1532 1534 1535
f 1534 1531 1535
f 1533 1531 1536
f 1532 1533 1536
f 1534 1532 1536
f 1531 1534 1536
f 1537 1539 1541
f 1539 1538 1541
f 1538 1540 1541
f 1540 1537 1541
f 1539 1537 1542
f 1538 1539 1542
f 1540 1538 1542
f 1537 1540 1542
usemtl Stone3
f 1543 1545 1547
f 1545 1544 1547
f 1544 1546 1547
f 1546 1543 1547
f 1545 1543 1548
f 1544 1545 1548
f 1546 1544 1548
f 1543 1546 1548
f 1549 1551 1553
f 1551 1550 1553
f 1550 1552 1553
f 1552 1549 1553
f 1551 1549 1554
f 1550 1551 1554
f 1552 1550 1554
f 1549 1552 1554
usemtl Stone4
f 1555 1557 1559
f 1557 1556 1559
f 1556 1558 1559
f 1558 1555 1559
f 1557 1555 1560
f 1556 1557 1560
f 1558 1556 1560
f 1555 1558 1560
usemtl Stone3
f 1561 1563 1565
f 1563 1562 1565
f 1562 1564 1565
f 1564 1561 1565
f 1563 1561 1566
f 1562 1563 1566
f 1564 1562 1566
f 1561 1564 1566
f 1567 1569 1571
f 1569 1568 1571
f 1568 1570 1571
f 1570 1567 1571
f 1569 1567 1572
f 1568 1569 1572
f 1570 1568 1572
f 1567 1570 1572
usemtl Stone2
f 1573 1575 1577
f 1575 1574 1577
f 1574 1576 1577
f 1576 1573 1577
f 1575 1573 1578
f 1574 1575 1578
f 1576 1574 1578
f 1573 1576 1578
usemtl Stone4
f 1579 1581 1583
f 1581 1580 1583
f 1580 1582 1583
f 1582 1579 1583
f 1581 1579 1584
f 1580 1581 1584
f 1582 1580 1584
f 1579 1582 1584
usemtl Stone3
f 1585 1587 1589
f 1587 1586 1589
f 1586 1588 1589
f 1588 1585 1589
f 1587 1585 1590
f 1586 1587 1590
f 1588 1586 1590
f 1585 1588 1590
usemtl Stone4
f 1591 1593 1595
f 1593 1592 1595
f 1592 1594 1595
f 1594 1591 1595
f 1593 1591 1596
f 1592 1593 1596
f 1594 1592 1596
f 1591 1594 1596
usemtl Stone2
f 1597 1599 1601
f 1599 1598 1601
f 1598 1600 1601
f 1600 1597 1601
f 1599 1597 1602
f 1598 1599 1602
f 1600 1598 1602
f 1597 1600 1602
f 1603 1605 1607
f 1605 1604 1607
f 1604 1606 1607
f 1606 1603 1607
f 1605 1603 1608
f 1604 1605 1608
f 1606 1604 1608
f 1603 1606 1608
f 1609 1611 1613
f 1611 1610 1613
f 1610 1612 1613
f 1612 1609 1613
f 1611 1609 1614
f 1610 1611 1614
f 1612 1610 1614
f 1609 1612 1614
usemtl Stone4
f 1615 1617 1619
f 1617 1616 1619
f 1616 1618 1619
f 1618 1615 1619
f 1617 1615 1620
f 1616 1617 1620
f 1618 1616 1620
f 1615 1618 1620
usemtl Stone3
f 1621 1623 1625
f 1623 1622 1625
f 1622 1624 1625
f 1624 1621 1625
f 1623 1621 1626
f 1622 1623 1626
f 1624 1622 1626
f 1621 1624 1626
f 1627 1629 1631
f 1629 1628 1631
f 1628 1630 1631
f 1630 1627 1631
f 1629 1627 1632
f 1628 1629 1632
f 1630 1628 1632
f 1627 1630 1632
f 1633 1635 1637
f 1635 1634 1637
f 1634 1636 1637
f 1636 1633 1637
f 1635 1633 1638
f 1634 1635 1638
f 1636 1634 1638
f 1633 1636 1638
usemtl Stone4
f 1639 1641 1643
f 1641 1640 1643
f 1640 1642 1643
f 1642 1639 1643
f 1641 1639 1644
f 1640 1641 1644
f 1642 1640 1644
f 1639 1642 1644
usemtl Stone2
f 1645 1647 1649
f 1647 1646 1649
f 1646 1648 1649
f 1648 1645 1649
f 1647 1645 1650
f 1646 1647 1650
f 1648 1646 1650
f 1645 1648 1650
usemtl Stone3
f 1651 1653 1655
f 1653 1652 1655
f 1652 1654 1655
f 1654 1651 1655
f 1653 1651 1656
f 1652 1653 1656
f 1654 1652 1656
f 1651 1654 1656
usemtl Stone4
f 1657 1659 1661
f 1659 1658 1661
f 1658 1660 1661
f 1660 1657 1661
f 1659 1657 1662
f 1658 1659 1662
f 1660 1658 1662
f 1657 1660 1662
f 1663 1665 1667
f 1665 1664 1667
f 1664 1666 1667
f 1666 1663 1667
f 1665 1663 1668
f 1664 1665 1668
f 1666 1664 1668
f 1663 1666 1668
usemtl Stone2
f 1669 1671 1673
f 1671 1670 1673
f 1670 1672 1673
f 1672 1669 1673
f 1671 1669 1674
f 1670 1671 1674
f 1672 1670 1674
f 1669 1672 1674
usemtl Stone4
f 1675 1677 1679
f 1677 1676 1679
f 1676 1678 1679
f 1678 1675 1679
f 1677 1675 1680
f 1676 1677 1680
f 1678 1676 1680
f 1675 1678 1680
f 1681 1683 1685
f 1683 1682 1685
f 1682 1684 1685
f 1684 1681 1685
f 1683 1681 1686
f 1682 1683 1686
f 1684 1682 1686
f 1681 1684 1686
usemtl Stone2
f 1687 1689 1691
f 1689 1688 1691
f 1688 1690 1691
f 1690 1687 1691
f 1689 1687 1692
f 1688 1689 1692
f 1690 1688 1692
f 1687 1690 1692
usemtl Stone3
f 1693 1695 1697
f 1695 1694 1697
f 1694 1696 1697
f 1696 1693 1697
f 1695 1693 1698
f 1694 1695 1698
f 1696 1694 1698
f 1693 1696 1698
usemtl Stone1
f 1699 1701 1703
f 1701 1700 1703
f 1700 1702 1703
f 1702 1699 1703
f 1701 1699 1704
f 1700 1701 1704
f 1702 1700 1704
f 1699 1702 1704
usemtl Stone2
f 1705 1707 1709
f 1707 1706 1709
f 1706 1708 1709
f 1708 1705 1709
f 1707 1705 1710
f 1706 1707 1710
f 1708 1706 1710
f 1705 1708 1710
usemtl Stone1
f 1711 1713 1715
f 1713 1712 1715
f 1712 1714 1715
f 1714 1711 1715
f 1713 1711 1716
f 1712 1713 1716
f 1714 1712 1716
f 1711 1714 1716
usemtl Stone4
f 1717 1719 1721
f 1719 1718 1721
f 1718 1720 1721
f 1720 1717 1721
f 1719 1717 1722
f 1718 1719 1722
f 1720 1718 1722
f 1717 1720 1722
usemtl Stone3
f 1723 1725 1727
f 1725 1724 1727
f 1724 1726 1727
f 1726 1723 1727
f 1725 1723 1728
f 1724 1725 1728
f 1726 1724 1728
f 1723 1726 1728
usemtl Stone1
f 1729 1731 1733
f 1731 1730 1733
f 1730 1732 1733
f 1732 1729 1733
f 1731 1729 1734
f 1730 1731 1734
f 1732 1730 1734
f 1729 1732 1734
usemtl Stone3
f 1735 1737 1739
f 1737 1736 1739
f 1736 1738 1739
f 1738 1735 1739
f 1737 1735 1740
f 1736 1737 1740
f 1738 1736 1740
f 1735 1738 1740
usemtl Stone4
f 1741 1743 1745
f 1743 1742 1745
f 1742 1744 1745
f 1744 1741 1745
f 1743 1741 1746
f 1742 1743 1746
f 1744 1742 1746
f 1741 1744 1746
f 1747 1749 1751
f 1749 1748 1751
f 1748 1750 1751
f 1750 1747 1751
f 1749 1747 1752
f 1748 1749 1752
f 1750 1748 1752
f 1747 1750 1752
usemtl Stone1
f 1753 1755 1757
f 1755 1754 1757
f 1754 1756 1757
f 1756 1753 1757
f 1755 1753 1758
f 1754 1755 1758
f 1756 1754 1758
f 1753 1756 1758
usemtl Stone4
f 1759 1761 1763
f 1761 1760 1763
f 1760 1762 1763
f 1762 1759 1763
f 1761 1759 1764
f 1760 1761 1764
f 1762 1760 1764
f 1759 1762 1764
usemtl Stone1
f 1765 1767 1769
f 1767 1766 1769
f 1766 1768 1769
f 1768 1765 1769
f 1767 1765 1770
f 1766 1767 1770
f 1768 1766 1770
f 1765 1768 1770
usemtl Stone2
f 1771 1773 1775
f 1773 1772 1775
f 1772 1774 1775
f 1774 1771 1775
f 1773 1771 1776
f 1772 1773 1776
f 1774 1772 1776
f 1771 1774 1776
usemtl Stone3
f 1777 1779 1781
f 1779 1778 1781
f 1778 1780 1781
f 1780 1777 1781
f 1779 1777 1782
f 1778 1779 1782
f 1780 1778 1782
f 1777 1780 1782
usemtl Stone4
f 1783 1785 1787
f 1785 1784 1787
f 1784 1786 1787
f 1786 1783 1787
f 1785 1783 1788
f 1784 1785 1788
f 1786 1784 1788
f 1783 1786 1788
f 1789 1791 1793
f 1791 1790 1793
f 1790 1792 1793
f 1792 1789 1793
f 1791 1789 1794
f 1790 1791 1794
f 1792 1790 1794
f 1789 1792 1794
f 1795 1797 1799
f 1797 1796 1799
f 1796 1798 1799
f 1798 1795 1799
f 1797 1795 1800
f 1796 1797 1800
f 1798 1796 1800
f 1795 1798 1800
usemtl Stone1
f 1801 1803 1805
f 1803 1802 1805
f 1802 1804 1805
f 1804 1801 1805
f 1803 1801 1806
f 1802 1803 1806
f 1804 1802 1806
f 1801 1804 1806
usemtl Stone3
f 1807 1809 1811
f 1809 1808 1811
f 1808 1810 1811
f 1810 1807 1811
f 1809 1807 1812
f 1808 1809 1812
f 1810 1808 1812
f 1807 1810 1812
f 1813 1815 1817
f 1815 1814 1817
f 1814 1816 1817
f 1816 1813 1817
f 1815 1813 1818
f 1814 1815 1818
f 1816 1814 1818
f 1813 1816 1818
f 1819 1821 1823
f 1821 1820 1823
f 1820 1822 1823
f 1822 1819 1823
f 1821 1819 1824
f 1820 1821 1824
f 1822 1820 1824
f 1819 1822 1824
usemtl Stone2
f 1825 1827 1829
f 1827 1826 1829
f 1826 1828 1829
f 1828 1825 1829
f 1827 1825 1830
f 1826 1827 1830
f 1828 1826 1830
f 1825 1828 1830
usemtl Stone3
f 1831 1833 1835
f 1833 1832 1835
f 1832 1834 1835
f 1834 1831 1835
f 1833 1831 1836
f 1832 1833 1836
f 1834 1832 1836
f 1831 1834 1836
usemtl Stone1
f 1837 1839 1841
f 1839 1838 1841
f 1838 1840 1841
f 1840 1837 1841
f 1839 1837 1842
f 1838 1839 1842
f 1840 1838 1842
f 1837 1840 1842
usemtl Stone3
f 1843 1845 1847
f 1845 1844 1847
f 1844 1846 1847
f 1846 1843 1847
f 1845 1843 1848
f 1844 1845 1848
f 1846 1844 1848
f 1843 1846 1848
f 1849 1851 1853
f 1851 1850 1853
f 1850 1852 1853
f 1852 1849 1853
f 1851 1849 1854
f 1850 1851 1854
f 1852 1850 1854
f 1849 1852 1854
f 1855 1857 1859
f 1857 1856 1859
f 1856 1858 1859
f 1858 1855 1859
f 1857 1855 1860
f 1856 1857 1860
f 1858 1856 1860
f 1855 1858 1860
usemtl Stone1
f 1861 1863 1865
f 1863 1862 1865
f 1862 1864 1865
f 1864 1861 1865
f 1863 1861 1866
f 1862 1863 1866
f 1864 1862 1866
f 1861 1864 1866
usemtl Stone2
f 1867 1869 1871
f 1869 1868 1871
f 1868 1870 1871
f 1870 1867 1871
f 1869 1867 1872
f 1868 1869 1872
f 1870 1868 1872
f 1867 1870 1872
usemtl Stone1
f 1873 1875 1877
f 1875 1874 1877
f 1874 1876 1877
f 1876 1873 1877
f 1875 1873 1878
f 1874 1875 1878
f 1876 1874 1878
f 1873 1876 1878
usemtl Stone3
f 1879 1881 1883
f 1881 1880 1883
f 1880 1882 1883
f 1882 1879 1883
f 1881 1879 1884
f 1880 1881 1884
f 1882 1880 1884
f 1879 1882 1884
usemtl Stone2
f 1885 1887 1889
f 1887 1886 1889
f 1886 1888 1889
f 1888 1885 1889
f 1887 1885 1890
f 1886 1887 1890
f 1888 1886 1890
f 1885 1888 1890
f 1891 1893 1895
f 1893 1892 1895
f 1892 1894 1895
f 1894 1891 1895
f 1893 1891 1896
f 1892 1893 1896
f 1894 1892 1896
f 1891 1894 1896
f 1897 1899 1901
f 1899 1898 1901
f 1898 1900 1901
f 1900 1897 1901
f 1899 1897 1902
f 1898 1899 1902
f 1900 1898 1902
f 1897 1900 1902
usemtl Stone3
f 1903 1905 1907
f 1905 1904 1907
f 1904 1906 1907
f 1906 1903 1907
f 1905 1903 1908
f 1904 1905 1908
f 1906 1904 1908
f 1903 1906 1908
f 1909 1911 1913
f 1911 1910 1913
f 1910 1912 1913
f 1912 1909 1913
f 1911 1909 1914
f 1910 1911 1914
f 1912 1910 1914
f 1909 1912 1914
usemtl Stone4
f 1915 1917 1919
f 1917 1916 1919
f 1916 1918 1919
f 1918 1915 1919
f 1917 1915 1920
f 1916 1917 1920
f 1918 1916 1920
f 1915 1918 1920
