# 12 m approximate 50N rail profile
mtllib rail_profile_12m.mtl
usemtl RailRust
v -6.000000 -0.063500 0.000000
v -6.000000 0.063500 0.000000
v -6.000000 0.063500 0.012000
v -6.000000 0.020000 0.020000
v -6.000000 0.008000 0.038000
v -6.000000 0.007500 0.105000
v -6.000000 0.032500 0.120000
v -6.000000 0.032500 0.153000
v -6.000000 -0.032500 0.153000
v -6.000000 -0.032500 0.120000
v -6.000000 -0.007500 0.105000
v -6.000000 -0.008000 0.038000
v -6.000000 -0.020000 0.020000
v -6.000000 -0.063500 0.012000
v 6.000000 -0.063500 0.000000
v 6.000000 0.063500 0.000000
v 6.000000 0.063500 0.012000
v 6.000000 0.020000 0.020000
v 6.000000 0.008000 0.038000
v 6.000000 0.007500 0.105000
v 6.000000 0.032500 0.120000
v 6.000000 0.032500 0.153000
v 6.000000 -0.032500 0.153000
v 6.000000 -0.032500 0.120000
v 6.000000 -0.007500 0.105000
v 6.000000 -0.008000 0.038000
v 6.000000 -0.020000 0.020000
v 6.000000 -0.063500 0.012000
vn -1.00000000 0.00000000 0.00000000
vn -1.00000000 0.00000000 0.00000000
vn -1.00000000 0.00000000 0.00000000
vn -1.00000000 0.00000000 0.00000000
vn -1.00000000 0.00000000 0.00000000
vn -1.00000000 0.00000000 0.00000000
vn -1.00000000 0.00000000 0.00000000
vn -1.00000000 0.00000000 0.00000000
vn -1.00000000 0.00000000 0.00000000
vn -1.00000000 0.00000000 0.00000000
vn -1.00000000 0.00000000 0.00000000
vn -1.00000000 0.00000000 -0.00000000
vn 1.00000000 0.00000000 0.00000000
vn 1.00000000 -0.00000000 0.00000000
vn 1.00000000 0.00000000 0.00000000
vn 1.00000000 0.00000000 0.00000000
vn 1.00000000 0.00000000 -0.00000000
vn 1.00000000 0.00000000 0.00000000
vn 1.00000000 0.00000000 0.00000000
vn 1.00000000 0.00000000 0.00000000
vn 1.00000000 0.00000000 0.00000000
vn 1.00000000 0.00000000 0.00000000
vn 1.00000000 0.00000000 0.00000000
vn 1.00000000 0.00000000 0.00000000
vn 0.00000000 0.00000000 -1.00000000
vn 0.00000000 0.00000000 -1.00000000
vn 0.00000000 1.00000000 0.00000000
vn -0.00000000 1.00000000 0.00000000
vn 0.00000000 0.18087469 0.98350615
vn -0.00000000 0.18087469 0.98350615
vn 0.00000000 0.83205029 0.55470020
vn -0.00000000 0.83205029 0.55470020
vn 0.00000000 0.99997216 0.00746248
vn -0.00000000 0.99997216 0.00746248
vn 0.00000000 0.51449576 -0.85749293
vn 0.00000000 0.51449576 -0.85749293
vn 0.00000000 1.00000000 0.00000000
vn -0.00000000 1.00000000 0.00000000
vn 0.00000000 0.00000000 1.00000000
vn 0.00000000 0.00000000 1.00000000
vn -0.00000000 -1.00000000 0.00000000
vn 0.00000000 -1.00000000 0.00000000
vn -0.00000000 -0.51449576 -0.85749293
vn 0.00000000 -0.51449576 -0.85749293
vn 0.00000000 -0.99997216 0.00746248
vn 0.00000000 -0.99997216 0.00746248
vn 0.00000000 -0.83205029 0.55470020
vn 0.00000000 -0.83205029 0.55470020
vn 0.00000000 -0.18087469 0.98350615
vn 0.00000000 -0.18087469 0.98350615
vn -0.00000000 -1.00000000 0.00000000
vn 0.00000000 -1.00000000 0.00000000
f 1//1 14//1 13//1
f 11//2 10//2 9//2
f 11//3 9//3 8//3
f 11//4 8//4 7//4
f 11//5 7//5 6//5
f 12//6 11//6 6//6
f 12//7 6//7 5//7
f 13//8 12//8 5//8
f 13//9 5//9 4//9
f 1//10 13//10 4//10
f 1//11 4//11 3//11
f 3//12 2//12 1//12
f 28//13 15//13 16//13
f 28//14 16//14 17//14
f 28//15 17//15 18//15
f 20//16 21//16 22//16
f 20//17 22//17 23//17
f 20//18 23//18 24//18
f 20//19 24//19 25//19
f 19//20 20//20 25//20
f 19//21 25//21 26//21
f 18//22 19//22 26//22
f 18//23 26//23 27//23
f 18//24 27//24 28//24
f 15//25 1//25 2//25
f 2//26 16//26 15//26
f 16//27 2//27 3//27
f 3//28 17//28 16//28
f 17//29 3//29 4//29
f 4//30 18//30 17//30
f 18//31 4//31 5//31
f 5//32 19//32 18//32
f 19//33 5//33 6//33
f 6//34 20//34 19//34
f 20//35 6//35 7//35
f 7//36 21//36 20//36
f 21//37 7//37 8//37
f 8//38 22//38 21//38
f 22//39 8//39 9//39
f 9//40 23//40 22//40
f 23//41 9//41 10//41
f 10//42 24//42 23//42
f 24//43 10//43 11//43
f 11//44 25//44 24//44
f 25//45 11//45 12//45
f 12//46 26//46 25//46
f 26//47 12//47 13//47
f 13//48 27//48 26//48
f 27//49 13//49 14//49
f 14//50 28//50 27//50
f 28//51 14//51 1//51
f 1//52 15//52 28//52
